<svg width="20" height="20" viewBox="0 0 20 20" fill="none" xmlns="http://www.w3.org/2000/svg">
<path d="M9.99983 0C4.47716 0 0 4.47722 0 9.9999C0 15.5224 4.47709 20 9.9997 20C15.5223 20 19.9999 15.5224 19.9999 9.9999C19.9999 4.47722 15.5224 0 9.99983 0ZM13.7721 13.8113C13.3728 14.2102 12.726 14.2102 12.3271 13.8113L10.0516 11.5358L7.67259 13.9149C7.27353 14.3138 6.62667 14.3138 6.22781 13.9149C5.82854 13.5155 5.82854 12.8688 6.22781 12.4695L8.60665 10.0907L6.39174 7.87592C5.99281 7.47653 5.99281 6.82986 6.39174 6.43074C6.7908 6.03167 7.43779 6.03167 7.83692 6.43074L10.0517 8.64551L12.1631 6.534C12.5621 6.13507 13.2093 6.13494 13.6081 6.534C14.0073 6.9334 14.0073 7.58046 13.6081 7.97919L11.4969 10.0906L13.7722 12.366C14.1711 12.7649 14.1713 13.4121 13.7721 13.8113Z" fill="#CED7E1"/>
</svg>
