<svg width="140" height="37" viewBox="0 0 140 37" fill="none" xmlns="http://www.w3.org/2000/svg">
<g clip-path="url(#clip0)">
<path d="M12.6611 7.38574L1.87023 18.6168C0.193649 20.3611 0.193649 23.1822 1.87023 24.9265L5.22766 28.4195L16.0228 17.1884C17.6993 15.4442 17.6993 12.623 16.0228 10.8788L12.6611 7.38574Z" fill="#00B481"/>
<path d="M34.9184 15.1235L24.1276 26.3501C22.451 28.0944 22.451 30.9155 24.1276 32.6598L27.485 36.1529L38.2801 24.9218C39.9567 23.1775 39.9567 20.3564 38.2801 18.6121L34.9184 15.1235Z" fill="#00B481"/>
<path d="M6.25836 29.4916L24.4527 10.567C26.1292 8.82272 28.8408 8.82272 30.5174 10.567L33.8748 14.06L15.6806 32.9846C14.004 34.7289 11.2924 34.7289 9.61579 32.9846L6.25836 29.4916Z" fill="#00B481"/>
</g>
<path d="M60.8292 29.2341C59.4395 29.2341 58.1817 28.9526 57.0558 28.3897C55.9476 27.8268 55.0416 27.0176 54.338 25.9621L56.5281 23.8511C57.1086 24.5372 57.8123 25.1001 58.6391 25.5399C59.4659 25.9797 60.2399 26.1996 60.9612 26.1996C61.7704 26.1996 62.4213 26.0148 62.9138 25.6454C63.4064 25.276 63.6527 24.7922 63.6527 24.1941C63.6527 23.7543 63.5735 23.3937 63.4152 23.1122C63.2568 22.8308 62.9578 22.5493 62.518 22.2679C62.0782 21.9688 61.357 21.573 60.3543 21.0804C59.0349 20.4295 57.997 19.8226 57.2406 19.2597C56.4841 18.6968 55.9212 18.0899 55.5518 17.439C55.1999 16.7705 55.024 15.9965 55.024 15.1169C55.024 14.1494 55.2791 13.2962 55.7893 12.5574C56.2994 11.8185 57.0207 11.2468 57.953 10.8422C58.8854 10.4376 59.9584 10.2353 61.1723 10.2353C62.5092 10.2353 63.6878 10.4904 64.7081 11.0005C65.746 11.5107 66.5025 12.2143 66.9775 13.1115L64.5762 14.9058C63.6966 13.8151 62.6148 13.2698 61.3306 13.2698C60.5214 13.2698 59.8969 13.4281 59.4571 13.7448C59.0173 14.0614 58.7974 14.51 58.7974 15.0905C58.7974 15.4424 58.903 15.759 59.1141 16.0405C59.3427 16.3219 59.7473 16.6298 60.3279 16.964C60.9084 17.2983 61.7792 17.738 62.9402 18.2834C64.0661 18.8111 64.9456 19.3389 65.5789 19.8666C66.2298 20.3944 66.696 20.9837 66.9775 21.6346C67.2589 22.2854 67.3996 23.0595 67.3996 23.9566C67.3996 25.0121 67.127 25.9445 66.5816 26.7537C66.0539 27.5453 65.2887 28.161 64.286 28.6008C63.3008 29.023 62.1486 29.2341 60.8292 29.2341ZM78.3182 28.9702L74.4129 22.822L72.8296 24.3788V28.9702H69.4521V9.39088H72.8296V20.3416L77.4738 15.7766H81.6166L76.735 20.5527L82.118 28.9702H78.3182ZM88.0868 29.2341C86.574 29.2341 85.4217 28.7239 84.6301 27.7036C83.8561 26.6833 83.4691 25.188 83.4691 23.2178V15.7766H86.8466V23.2442C86.8466 24.37 87.0313 25.1968 87.4008 25.7246C87.7702 26.2523 88.3419 26.5162 89.1159 26.5162C90.0483 26.5162 90.8135 26.1644 91.4116 25.4607C92.0097 24.7395 92.3088 23.8511 92.3088 22.7956V15.7766H95.6864V25.619C95.6864 26.5162 95.7567 27.6333 95.8974 28.9702H92.7046C92.5639 28.1786 92.4847 27.4046 92.4671 26.6481H92.4143C92.0977 27.4398 91.5436 28.073 90.7519 28.548C89.9779 29.0054 89.0895 29.2341 88.0868 29.2341ZM98.3923 19.2861C98.3923 17.8612 98.3571 16.6914 98.2867 15.7766H101.453C101.506 16.3043 101.532 16.8849 101.532 17.5182H101.585C102.025 16.8849 102.597 16.3923 103.3 16.0405C104.004 15.6886 104.787 15.5127 105.649 15.5127C107.32 15.5127 108.639 16.1284 109.607 17.3598C110.574 18.5912 111.058 20.2712 111.058 22.3998C111.058 24.5284 110.566 26.1996 109.58 27.4134C108.613 28.6272 107.267 29.2341 105.543 29.2341C104.699 29.2341 103.951 29.0934 103.3 28.8119C102.649 28.5304 102.166 28.1346 101.849 27.6245H101.77V35.3559H98.3923V19.2861ZM104.804 26.7273C105.737 26.7273 106.449 26.3491 106.942 25.5926C107.434 24.8186 107.681 23.7192 107.681 22.2942C107.681 19.4972 106.739 18.0987 104.857 18.0987C103.942 18.0987 103.195 18.3713 102.614 18.9167C102.051 19.4444 101.77 20.1481 101.77 21.0277V23.7455C101.77 24.5899 102.06 25.3024 102.641 25.8829C103.221 26.4458 103.942 26.7273 104.804 26.7273ZM119.54 29.2341C117.411 29.2341 115.749 28.6272 114.553 27.4134C113.356 26.1996 112.758 24.5196 112.758 22.3734C112.758 20.2272 113.356 18.5473 114.553 17.3334C115.749 16.1196 117.411 15.5127 119.54 15.5127C121.668 15.5127 123.331 16.1196 124.527 17.3334C125.741 18.5473 126.348 20.2272 126.348 22.3734C126.348 24.5196 125.741 26.1996 124.527 27.4134C123.331 28.6272 121.668 29.2341 119.54 29.2341ZM119.54 26.7273C120.613 26.7273 121.457 26.3403 122.073 25.5663C122.689 24.7922 122.997 23.728 122.997 22.3734C122.997 21.0189 122.689 19.9546 122.073 19.1805C121.457 18.4065 120.613 18.0195 119.54 18.0195C118.467 18.0195 117.622 18.4065 117.007 19.1805C116.409 19.9546 116.109 21.0189 116.109 22.3734C116.109 23.728 116.409 24.7922 117.007 25.5663C117.622 26.3403 118.467 26.7273 119.54 26.7273ZM132.762 29.2341C131.619 29.2341 130.608 29.0054 129.728 28.548C128.866 28.0906 128.259 27.4837 127.907 26.7273L129.992 25.276C130.308 25.7158 130.713 26.0676 131.206 26.3315C131.698 26.5954 132.2 26.7273 132.71 26.7273C133.308 26.7273 133.8 26.5778 134.187 26.2787C134.574 25.9621 134.768 25.5751 134.768 25.1177C134.768 24.7483 134.627 24.458 134.346 24.2469C134.064 24.0182 133.466 23.728 132.551 23.3761C130.951 22.7604 129.825 22.1359 129.174 21.5026C128.523 20.8693 128.197 20.0865 128.197 19.1542C128.197 18.0635 128.637 17.1839 129.517 16.5154C130.414 15.847 131.601 15.5127 133.079 15.5127C134.064 15.5127 134.953 15.7062 135.744 16.0932C136.536 16.4627 137.178 16.9992 137.671 17.7029L135.718 19.1542C135.102 18.3977 134.267 18.0195 133.211 18.0195C132.683 18.0195 132.27 18.1163 131.971 18.3098C131.689 18.4857 131.549 18.7496 131.549 19.1014C131.549 19.3477 131.61 19.55 131.733 19.7083C131.857 19.8666 132.094 20.0337 132.446 20.2097C132.798 20.3856 133.361 20.6231 134.135 20.9221C135.173 21.3267 135.973 21.7225 136.536 22.1095C137.116 22.479 137.521 22.8924 137.75 23.3497C137.996 23.7895 138.119 24.3261 138.119 24.9594C138.119 25.8037 137.89 26.5514 137.433 27.2023C136.993 27.8356 136.369 28.3369 135.56 28.7063C134.75 29.0582 133.818 29.2341 132.762 29.2341Z" fill="#F5F7FA"/>
<defs>
<clipPath id="clip0">
<rect width="38.9206" height="28.7674" fill="white" transform="translate(0.612793 7.38574)"/>
</clipPath>
</defs>
</svg>
