<svg width="742" height="491" viewBox="0 0 742 491" fill="none" xmlns="http://www.w3.org/2000/svg">
<path d="M503.4 161.7H349.4C324.4 161.7 303.9 141.2 303.9 116.2V45.5C303.9 20.5 324.4 0 349.4 0H503.4C528.4 0 548.9 20.5 548.9 45.5V116.2C548.9 141.2 528.4 161.7 503.4 161.7Z" fill="#FFC059"/>
<path d="M478.6 287.1C478.6 287.1 483.2 282.4 482 274.4C480.8 266.4 479.7 260.5 471.2 257.9C462.7 255.3 453.5 254.5 450.4 246C450.4 246 449.6 241.5 451.3 230.4C453 219.3 458.9 189.3 458.9 189.3C458.9 189.3 459.8 174.5 444.9 167.6C430.1 160.7 416.4 160.4 416.4 160.4C416.4 160.4 394.4 161.4 385.4 164.1C376.4 166.8 375.4 179.6 375.5 184.8C375.6 190 375.5 195.8 375.5 195.8L421.8 228.9C421.8 228.9 412.7 234.5 409.8 248.6C406.9 262.7 410.1 276.3 418.8 281.8C427.5 287.2 447.9 289.2 463 279.1L478.6 287.1Z" fill="#1A1A1A"/>
<path d="M330.5 475.5L407.7 476.3C407.7 476.3 394.6 459.8 393.3 449.7C393.3 449.7 335.1 474.8 330.5 475.5Z" fill="#1A1A1A"/>
<path d="M87.6 303.9L101.1 296.8H289.3L300.2 301.2L306.9 309.8L350.3 439.3L352.2 449.4L351.1 457.8L345.3 467.4L339.1 472.6L332.2 475.5H320.4L135.8 476.5L87.6 303.9Z" fill="white"/>
<path d="M624.6 438.8V436.5C624.6 436.5 619.3 433.2 601.5 433.2C583.8 433.2 580.9 437.3 580.9 437.3V486.9C580.9 486.9 586.7 489.8 602.6 489.8C618.5 489.8 624.2 486.9 624.2 486.9L625 478.8C625 478.8 644.7 476.9 644.7 459C644.7 441.1 633.6 440.6 624.6 438.8ZM624.9 471.8V446C624.9 446 637.5 444.3 638 455.2C638.7 467.8 624.9 471.8 624.9 471.8Z" fill="#1A1A1A"/>
<path d="M664.1 142.4H526.5C512.8 142.4 501.6 153.6 501.6 167.3V204.6V259.5L531.6 229.5H664.2C677.9 229.5 689.1 218.3 689.1 204.6V167.3C689.1 153.6 677.9 142.4 664.1 142.4Z" fill="#1A1A1A"/>
<path d="M171.2 195L158.7 159.5H87.6L105.4 209.7H175.4L171.2 195Z" fill="#FFC059"/>
<path d="M313.3 476.4H136.9C125.3 476.4 115 469.3 111.3 458.7L69.4 337.8C63.6 321.1 76.6 303.9 95 303.9H271.4C283 303.9 293.3 311 297 321.6L338.8 442.4C344.7 459.1 331.7 476.4 313.3 476.4Z" fill="#1A1A1A"/>
<path d="M394.2 269.5C394.2 269.5 360.1 274.1 345.3 293.6C330.5 313.1 317.7 338.5 317.7 338.5L349.9 438.2C349.9 438.2 353.4 430.4 356 430C358.6 429.6 366.8 430 369.6 433.1C369.6 433.1 378.2 429 388.6 435.5C388.6 435.5 399.4 434.1 409 439.4C418.6 444.6 427.1 448.3 427.1 448.3C427.1 448.3 428 467.5 415.1 475.9L539 476.4C539 476.4 548.5 456.3 547.2 439.3C545.8 422.3 540.4 390.6 533.2 375.6C526.1 360.6 518.2 340.1 508.7 325.3C499.2 310.5 490.3 298.5 481.3 289.6L464.3 279C464.3 279 445.3 288.1 431 285.7C416.6 283.3 415.8 279.6 415.8 279.6C415.8 279.6 405.4 294.8 399.1 293.8C392.7 292.8 394.2 269.5 394.2 269.5Z" fill="#FFC059"/>
<path d="M602.3 436.5C592.6 436.5 584.8 438.1 584.8 440.1L602.3 441.1L619.8 440.1C619.8 438.2 612 436.5 602.3 436.5Z" fill="white"/>
<path d="M381.1 176.4C381.1 176.4 376.8 191.3 376.4 194.9C376 198.4 375.7 218.7 375.1 225C374.4 231.3 377.3 253.1 392.7 251.2L394.3 269.5C394.3 269.5 392.7 293.3 399.1 293.8C405.5 294.2 415.8 279.6 415.8 279.6C415.8 279.6 408.1 272.7 408.5 258.7C408.9 244.7 415.1 234.6 423.1 228.9C423.1 228.9 417.9 216.7 421.9 209.1C421.9 209.1 405.3 206.4 397.6 199.1C389.8 191.7 385.1 187.6 381.1 176.4Z" fill="white"/>
<path d="M427.6 448.6C427.6 448.6 415.7 441.2 405.6 437.8C395.5 434.4 390 435.5 390 435.5C390 435.5 382.1 432.4 378.2 431.9C374.3 431.4 370.2 433.5 370.2 433.5C370.2 433.5 366.5 430.1 361.3 430C356.1 430 352.1 432.8 350 438.1C350 438.1 353.1 446.7 352.2 451.6C351.4 456.4 348.1 469.3 339.1 472.6C339.1 472.6 344.4 479.3 352.3 472.2C352.3 472.2 357.6 477.5 371.2 476.4C371.2 476.4 382.4 477.4 386.2 473.5C390 469.7 394.6 461.3 394.6 461.3C394.6 461.3 397.6 477.1 413.4 476.5C413.4 476.5 419.3 474.7 423.6 465.5C428 456.3 427.6 448.6 427.6 448.6Z" fill="white"/>
<path d="M200.1 388.9C205.5 398.2 204.9 408.6 198.7 412.2C192.6 415.7 183.3 411.1 177.9 401.8C172.5 392.5 173.1 382.1 179.3 378.5C185.4 374.9 194.7 379.5 200.1 388.9Z" fill="white"/>
<path d="M179.7 215.7H274.2L297.7 282.3H203.5L179.7 215.7Z" fill="#FFC059"/>
<path d="M542.2 175.6C542.2 181.9 537.1 187 530.8 187C524.5 187 519.4 181.9 519.4 175.6C519.4 169.3 524.5 164.2 530.8 164.2C537.1 164.2 542.2 169.3 542.2 175.6Z" fill="white"/>
<path d="M596.7 175.6C596.7 181.9 591.6 187 585.3 187C579 187 573.9 181.9 573.9 175.6C573.9 169.3 579 164.2 585.3 164.2C591.6 164.2 596.7 169.3 596.7 175.6Z" fill="white"/>
<path d="M641.9 164.2C648.2 164.2 653.3 169.3 653.3 175.6C653.3 181.9 648.2 187 641.9 187C635.6 187 630.5 181.9 630.5 175.6C630.5 169.3 635.6 164.2 641.9 164.2Z" fill="white"/>
<path d="M413.7 112.1L446.8 55.3999L452 50.4999L455.8 49.8999L460.6 52.7999L496.2 113.1L497.5 118.6L494.2 124L490.6 125.5L417.4 125L413.7 122.8L411.9 118.6L413.7 112.1Z" fill="white"/>
<path d="M383.7 249C383.7 249 374 261.9 382.2 271.8L394.2 269.5L392.6 251.2C392.7 251.2 386.1 251.1 383.7 249Z" fill="#1A1A1A"/>
<path d="M447.8 216.7C447.8 227.3 441.7 236 434.3 236C426.8 236 420.8 227.4 420.8 216.7C420.8 206.1 426.9 197.4 434.3 197.4C441.8 197.4 447.8 206.1 447.8 216.7Z" fill="#CCCCCC"/>
<path d="M436.9 236C442.202 236 446.5 227.583 446.5 217.2C446.5 206.817 442.202 198.4 436.9 198.4C431.598 198.4 427.3 206.817 427.3 217.2C427.3 227.583 431.598 236 436.9 236Z" fill="white"/>
<path d="M430.4 197.2C430.4 197.2 428.9 178.7 419.1 170.7C408.1 161.7 395.5 161.5 395.5 161.5C395.5 161.5 398 158.7 404.8 158.6C411.6 158.5 419.6 161 426.4 166.4C433.3 171.7 437.9 184.2 436.8 196.5L430.4 197.2Z" fill="#FFC059"/>
<path d="M427 448.2C427 448.2 405.6 435.8 397.1 435.6C388.6 435.4 389.9 435.4 389.9 435.4C389.9 435.4 374.3 429 371 432C371 432 382 417.2 401.8 418.8C421.7 420.5 427.1 445.5 427 448.2Z" fill="#1A1A1A"/>
<path d="M122.8 149C122.4 149 121.9 148.7 121.8 148.3C120.4 144.4 119.4 140.3 118.7 136.2C118.6 135.6 119 135.1 119.6 135C120.2 134.9 120.7 135.3 120.8 135.9C121.5 139.9 122.5 143.9 123.8 147.7C124 148.3 123.7 148.9 123.1 149.1C123 149 122.9 149 122.8 149ZM118.9 124.8C118.3 124.8 117.8 124.3 117.8 123.7C117.9 119.5 118.3 115.3 119.1 111.2C119.2 110.6 119.8 110.2 120.4 110.4C121 110.5 121.4 111.1 121.2 111.7C120.4 115.7 120 119.7 119.9 123.8C119.9 124.3 119.4 124.8 118.9 124.8ZM123.6 100.7C123.5 100.7 123.3 100.7 123.2 100.6C122.6 100.4 122.4 99.7999 122.6 99.1999C123.7 96.4999 124.9 93.8999 126.2 91.3999C126.8 90.2999 127.5 89.0999 128.2 87.9999C128.5 87.4999 129.2 87.2999 129.7 87.6999C130.2 87.9999 130.4 88.6999 130 89.1999C129.3 90.2999 128.7 91.3999 128.1 92.4999C126.8 94.8999 125.6 97.4999 124.6 100.1C124.4 100.4 124 100.7 123.6 100.7ZM205.6 98.3999C204.3 98.3999 202.9 98.0999 201.5 97.3999C201 97.1999 200.7 96.4999 201 95.9999C201.2 95.3999 201.9 95.1999 202.4 95.4999C203.5 95.9999 204.6 96.2999 205.6 96.2999C208.8 96.2999 210.3 93.5999 210.9 92.0999C211.1 91.4999 211.7 91.2999 212.3 91.4999C212.9 91.6999 213.1 92.2999 212.9 92.8999C211.6 96.2999 208.9 98.3999 205.6 98.3999ZM192.8 89.4999C192.5 89.4999 192.1 89.2999 191.9 89.0999C189.5 85.7999 187.7 81.8999 186.6 77.5999C186.4 76.9999 186.8 76.3999 187.4 76.2999C188 76.0999 188.6 76.4999 188.7 77.0999C189.8 81.1999 191.4 84.7999 193.6 87.8999C193.9 88.3999 193.8 89.0999 193.4 89.3999C193.2 89.3999 193 89.4999 192.8 89.4999ZM211.4 81.3999C211 81.3999 210.6 81.0999 210.4 80.6999C209.4 78.0999 207.8 75.7999 205.8 73.8999C204.9 73.0999 204.1 72.2999 203.1 71.5999C202.6 71.1999 202.5 70.5999 202.9 70.0999C203.3 69.5999 203.9 69.4999 204.4 69.8999C205.4 70.6999 206.3 71.3999 207.2 72.2999C209.5 74.3999 211.2 76.8999 212.3 79.8999C212.5 80.4999 212.3 81.0999 211.7 81.2999C211.6 81.3999 211.5 81.3999 211.4 81.3999ZM136.7 79.8999C136.4 79.8999 136.2 79.7999 136 79.5999C135.6 79.1999 135.6 78.4999 136 78.0999C138.9 74.9999 142.1 72.2999 145.5 69.8999C146 69.5999 146.7 69.6999 147 70.1999C147.3 70.6999 147.2 71.3999 146.7 71.6999C143.4 73.9999 140.3 76.5999 137.5 79.5999C137.2 79.7999 136.9 79.8999 136.7 79.8999ZM186.3 66.0999C185.6 66.0999 185.2 65.5999 185.2 64.9999C185.2 64.4999 185.2 63.9999 185.2 63.4999C183.8 63.1999 182.4 62.9999 180.9 62.7999C180.3 62.6999 179.9 62.1999 180 61.5999C180.1 60.9999 180.6 60.5999 181.2 60.6999C182.6 60.8999 184 61.0999 185.4 61.3999C185.6 58.4999 186.1 55.4999 186.9 52.5999C187 51.9999 187.6 51.5999 188.2 51.7999C188.8 51.8999 189.1 52.4999 189 53.0999C188.3 55.9999 187.8 58.9999 187.6 61.8999C189.6 62.3999 191.6 62.9999 193.5 63.7999C194.1 63.9999 194.3 64.5999 194.1 65.1999C193.9 65.7999 193.2 65.9999 192.7 65.7999C191 65.0999 189.2 64.5999 187.4 64.0999C187.4 64.3999 187.4 64.7999 187.4 65.0999C187.3 65.5999 186.9 66.0999 186.3 66.0999ZM156.9 65.9999C156.5 65.9999 156.1 65.6999 155.9 65.2999C155.7 64.6999 155.9 64.0999 156.5 63.8999C158.6 62.9999 160.8 62.2999 163 61.7999C164.8 61.2999 166.7 60.9999 168.7 60.6999C169.3 60.5999 169.8 60.9999 169.9 61.5999C170 62.1999 169.6 62.6999 169 62.7999C167.1 63.0999 165.3 63.3999 163.6 63.7999C161.5 64.2999 159.4 64.9999 157.4 65.7999C157.1 65.9999 157 65.9999 156.9 65.9999ZM192.2 42.2999C192 42.2999 191.9 42.2999 191.7 42.1999C191.2 41.8999 191 41.2999 191.2 40.7999C193.3 36.7999 195.7 33.4999 198.5 30.8999C198.9 30.4999 199.8 30.3999 200.2 30.7999C200.6 31.1999 200.7 31.7999 200.3 32.1999C197.4 34.8999 195.1 37.9999 193.2 41.7999C192.9 42.0999 192.6 42.2999 192.2 42.2999ZM209 24.5999C208.7 24.5999 208.4 24.4999 208.1 24.1999C207.7 23.6999 207.8 23.0999 208.3 22.6999C211.7 20.0999 215.2 17.7999 218.7 15.7999C219.2 15.4999 219.9 15.6999 220.2 16.1999C220.5 16.6999 220.3 17.3999 219.8 17.6999C216.4 19.6999 213 21.8999 209.6 24.4999C209.4 24.4999 209.2 24.5999 209 24.5999ZM289.7 17.2999C289.5 17.2999 289.3 17.2999 289.1 17.0999C285.6 14.9999 281.9 13.1999 278.2 11.7999C277.6 11.5999 277.4 10.9999 277.6 10.3999C277.8 9.7999 278.4 9.4999 279 9.7999C282.9 11.2999 286.7 13.0999 290.3 15.2999C290.8 15.5999 291 16.2999 290.7 16.7999C290.4 17.0999 290 17.2999 289.7 17.2999ZM230.3 12.3999C229.9 12.3999 229.5 12.0999 229.3 11.6999C229.1 11.0999 229.3 10.4999 229.9 10.2999C233.9 8.6999 237.9 7.4999 241.9 6.6999C242.5 6.5999 243 6.9999 243.2 7.4999C243.3 8.0999 242.9 8.5999 242.4 8.7999C238.5 9.5999 234.6 10.7999 230.8 12.2999C230.6 12.2999 230.5 12.3999 230.3 12.3999ZM266.7 8.5999C262.8 7.8999 258.9 7.5999 255.2 7.5999H254.5C253.9 7.5999 253.4 7.0999 253.4 6.4999C253.4 5.8999 253.9 5.3999 254.5 5.3999H255.2C259.1 5.3999 263.1 5.7999 267 6.4999C267.6 6.5999 268 7.1999 267.9 7.7999C267.6 8.1999 267.2 8.5999 266.7 8.5999Z" fill="black"/>
<path d="M426.4 202.7C400.4 202.6 390.3 166.6 389.3 163.1C387.8 163.4 386.4 163.7 385.3 164.1C376.3 166.8 375.3 179.6 375.4 184.8C375.5 190 375.4 195.8 375.4 195.8L414.3 223.7C427.3 215.9 445.7 202.8 426.4 202.7Z" fill="white"/>
<path d="M419.2 261.4C416.4 244.3 426.2 232.3 426.2 232.3C426.2 232.3 433 214.8 432.5 213.3C432.1 212.1 412.6 213.9 402.4 215L421.8 228.9C421.8 228.9 412.7 234.5 409.8 248.6C406.9 262.7 410.1 276.3 418.8 281.8C424.3 285.2 434.6 287.3 445.2 285.7C432.7 284.4 421.4 275 419.2 261.4Z" fill="white"/>
<path d="M390.5 251.1C388.4 250.9 385.2 250.4 383.7 249C383.7 249 374 261.9 382.2 271.8L389.1 270.5C384.2 259 390.5 251.1 390.5 251.1Z" fill="white"/>
<path d="M598.3 412.4C589 412.4 581.9 409.3 577.2 403C570.3 393.9 570.5 381.1 572.3 375.2C575 366.3 574.4 363.4 572.5 354.6L572.2 353.3C570.9 347.3 573.1 340.2 577.6 335.2C582 330.3 588.1 328.1 595 328.8C602 329.5 607.3 332.5 610.5 337.5C614 342.9 614.5 350.3 612.1 357.7C608.3 369.2 612.2 374 612.3 374.1C618.2 380.5 621.9 392.5 618 401.7C616 406.4 611.2 412.1 599.4 412.5C599.1 412.4 598.7 412.4 598.3 412.4ZM592.5 330.8C586 330.8 581.7 333.9 579.2 336.6C575.2 341 573.2 347.6 574.3 352.9L574.6 354.2C576.5 363.2 577.2 366.5 574.3 375.9C572.5 381.8 572.7 393.8 578.8 401.8C583.3 407.7 590.3 410.6 599.4 410.3C607.8 410 613.5 406.8 616.1 400.8C619.6 392.5 616 381.3 610.7 375.5C610.5 375.3 605.8 369.9 610 357C612.3 350.2 611.8 343.5 608.6 338.7C605.8 334.3 601 331.7 594.7 331C594 330.9 593.2 330.8 592.5 330.8Z" fill="black"/>
<path d="M566.4 317.7C561.6 317.7 557.9 312.2 557.9 305.2C557.9 298.2 561.6 292.7 566.4 292.7C571.2 292.7 575 298.2 575 305.2C575 312.1 571.1 317.7 566.4 317.7ZM566.4 294.8C562.9 294.8 560 299.5 560 305.2C560 310.8 562.9 315.6 566.4 315.6C569.9 315.6 572.8 310.9 572.8 305.2C572.8 299.6 569.9 294.8 566.4 294.8Z" fill="black"/>
<path d="M624.7 473C624.2 473 623.8 472.7 623.7 472.2C623.6 471.6 623.9 471.1 624.5 470.9C625 470.8 636.3 468.1 637 456.8C637.2 453.8 636.4 451.5 634.7 449.9C631.2 446.6 624.9 447.2 624.8 447.2C624.2 447.3 623.7 446.8 623.6 446.2C623.5 445.6 624 445.1 624.6 445C624.9 445 632 444.3 636.2 448.3C638.4 450.4 639.3 453.3 639.1 456.9C638.3 469.8 625 472.9 624.9 473C624.8 472.9 624.7 473 624.7 473Z" fill="black"/>
<path d="M625.1 479.9C624.6 479.9 624.1 479.5 624 478.9C623.9 478.3 624.4 477.8 625 477.7C625.8 477.6 645 475.5 643.6 457C643.2 451.3 641.3 446.9 637.8 444.1C632.4 439.6 625 440.4 624.9 440.4C624.3 440.5 623.8 440 623.7 439.5C623.6 438.9 624.1 438.4 624.6 438.3C624.9 438.3 632.9 437.4 639.1 442.4C643 445.6 645.2 450.5 645.7 456.8C647.2 477.4 625.3 479.8 625.1 479.8C625.2 479.9 625.2 479.9 625.1 479.9Z" fill="black"/>
<path d="M602.7 490.8C598.9 490.8 579.9 490.6 579.9 486.3C579.9 485.7 580.4 485.2 581 485.2C581.5 485.2 582 485.6 582.1 486.1C583.1 487.2 590.9 488.7 602.8 488.7C615 488.7 622.9 487.2 623.8 486.1C623.8 485.5 624.2 485.1 624.8 485.1C625.4 485.1 625.8 485.7 625.8 486.3C625.7 490.6 606.5 490.8 602.7 490.8Z" fill="black"/>
<path d="M580.9 487.4C580.3 487.4 579.8 486.9 579.8 486.3V437.3C579.8 436.7 580.3 436.2 580.9 436.2C581.5 436.2 582 436.7 582 437.3V486.3C582 486.9 581.5 487.4 580.9 487.4Z" fill="black"/>
<path d="M624.7 487.4C624.1 487.4 623.6 486.9 623.6 486.3V437C623.6 436.4 624.1 435.9 624.7 435.9C625.3 435.9 625.8 436.4 625.8 437V486.4C625.7 486.9 625.3 487.4 624.7 487.4Z" fill="black"/>
<path d="M602.8 442.5C601.9 442.5 579.9 442.4 579.9 437.3C579.9 432.2 601.9 432.1 602.8 432.1C603.7 432.1 625.7 432.2 625.7 437.3C625.7 442.5 603.7 442.5 602.8 442.5ZM582.1 437.3C583 438.4 590.4 440.4 602.8 440.4C615.6 440.4 623 438.4 623.6 437.3C623 436.3 615.6 434.3 602.8 434.3C590.3 434.3 582.9 436.2 582.1 437.3Z" fill="black"/>
<path d="M477.8 288.1C477.4 288.1 477.1 287.9 476.9 287.6C476.6 287.1 476.8 286.4 477.3 286.1C481.5 283.7 481.4 277.3 480.9 273.8C480.1 267.4 477.6 262.9 473.5 260.2C472.6 259.6 471.6 259.1 470.4 258.6C468.5 257.8 466.5 257.3 464.4 256.7C460.2 255.6 455.9 254.5 452.6 251.4C449.6 248.7 448.3 244.2 449 239.3C453.2 208.2 457.4 190.8 457.8 189C457.3 180.9 453.5 174.4 446.6 169.7C436.9 163.2 423.2 161.5 413.5 161.3C412.9 161.3 412.4 160.8 412.5 160.2C412.5 159.6 413 159.2 413.6 159.2C423.7 159.4 437.8 161.1 447.9 168C455.5 173.1 459.6 180.2 460.1 189.1C460.1 189.2 460.1 189.3 460.1 189.4C460.1 189.6 455.7 207 451.3 239.6C450.7 243.8 451.8 247.6 454.3 249.8C457.2 252.5 461.1 253.5 465.2 254.6C467.3 255.2 469.5 255.7 471.5 256.5C472.8 257 473.9 257.6 474.9 258.2C479.6 261.2 482.4 266.3 483.3 273.3C484.2 280.4 482.5 285.5 478.6 287.8C478.1 288.1 478 288.1 477.8 288.1Z" fill="black"/>
<path d="M375.9 194.4C375.4 194.4 374.9 194 374.8 193.4C371.5 164.6 387.1 162.1 387.7 162C388.9 161.5 391 161 393.5 160.5C394.1 160.4 394.6 160.8 394.8 161.4C394.9 162 394.5 162.5 393.9 162.7C391.6 163.1 389.6 163.6 388.3 164.1C387.5 164.2 373.9 166.6 377 193.2C377.1 193.8 376.6 194.3 376.1 194.4C376 194.4 376 194.4 375.9 194.4Z" fill="black"/>
<path d="M514.7 455.5C514.4 455.5 514.2 455.4 514 455.2C479.7 425.2 402.7 420.3 401.9 420.3C401.3 420.3 400.9 419.8 400.9 419.2C400.9 418.6 401.5 418.3 402 418.2C402.8 418.2 480.6 423.2 515.4 453.7C515.8 454.1 515.9 454.8 515.5 455.2C515.3 455.4 515 455.5 514.7 455.5Z" fill="black"/>
<path d="M539.6 476.6C539.4 476.6 539.3 476.6 539.1 476.5C538.6 476.2 538.4 475.6 538.6 475.1C561 431.8 527 356.7 505.9 323C500.5 314.4 494.5 305.2 487.6 297.1C481.3 289.7 472.9 285 463.3 280C462.8 279.7 462.6 279.1 462.8 278.5C463.1 278 463.7 277.8 464.3 278C473.7 282.9 482.7 288 489.2 295.6C496.3 303.9 502.3 313.1 507.7 321.8C530.6 358.4 563.3 432 540.5 476C540.3 476.4 540 476.6 539.6 476.6Z" fill="black"/>
<path d="M317.8 339.5C317.7 339.5 317.5 339.5 317.4 339.4C316.9 339.2 316.6 338.5 316.8 338C317.2 337.1 317.6 336.1 318 335.2C334.5 297.2 356.4 275.9 385.1 270C387.3 269.5 394.1 268.4 394.1 268.4L394.5 270.5C394.5 270.5 387.8 271.7 385.6 272.1C357.2 277.9 336.4 298.2 320 336C319.6 336.9 319.2 337.8 318.8 338.8C318.6 339.2 318.2 339.5 317.8 339.5Z" fill="black"/>
<path d="M392.6 252.2C390.6 252.2 388.4 252 386.3 251.3C381.8 249.9 378.7 246.5 376.9 241.1C374.2 232.8 374.3 224.1 374.5 215.6V214.5C374.6 210 374.7 205.4 374.9 200.9L375.1 194.2C375.1 194 375.1 193.8 375.2 193.7C375.4 193.1 376 192.8 376.5 193C377.1 193.2 377.4 193.8 377.2 194.3L377 201C376.9 205.5 376.7 210.1 376.6 214.6V215.7C376.5 224 376.3 232.6 378.9 240.5C380.5 245.2 383.1 248.1 386.9 249.3C389.2 250 392 250.3 395.5 249.9C399 249.6 404.2 249 407.8 248.3C408.4 248.2 409 248.6 409.1 249.1C409.2 249.7 408.8 250.2 408.3 250.4C404.6 251.1 399.3 251.8 395.8 252.1C394.8 252.2 393.8 252.2 392.6 252.2Z" fill="black"/>
<path d="M421.8 210.1C393 204.8 384.2 187.2 381.6 178.8C380.6 183 378.9 189.3 377.2 194.3C377 194.9 376.4 195.1 375.8 195C375.2 194.8 374.9 194.2 375.1 193.6C377.9 185.6 380.5 174 380.5 173.9C380.6 173.4 381 173.1 381.6 173.1C382.1 173.1 382.5 173.5 382.6 174.1C382.7 175.2 385.7 201.4 421.9 208.1C422.5 208.2 422.9 208.8 422.8 209.3C422.8 209.8 422.3 210.1 421.8 210.1Z" fill="black"/>
<path d="M403.1 205.9C402.2 205.8 401.7 206.1 401.4 209.2C401.1 212.6 402 213.2 402.8 213.2C403.6 213.2 404.3 212.1 404.3 209.7C404.3 207.2 404.2 206.1 403.1 205.9Z" fill="black"/>
<path d="M379.3 204.5C378.4 204.3 377.9 204.7 377.5 207.8C377.1 211.2 378 211.9 378.8 211.9C379.6 211.9 380.4 210.9 380.4 208.4C380.5 205.9 380.4 204.7 379.3 204.5Z" fill="black"/>
<path d="M376.2 198.3C375.9 198.3 375.6 198.2 375.4 197.9C375 197.5 375.1 196.8 375.5 196.4C376.8 195.2 379.2 193.8 383.7 195C384.3 195.2 384.6 195.7 384.5 196.3C384.4 196.9 383.8 197.2 383.2 197.1C379.7 196.2 378.1 197 376.9 198C376.7 198.2 376.4 198.3 376.2 198.3Z" fill="black"/>
<path d="M399.4 294.8C398.9 294.8 398.5 294.7 398 294.6C391.9 292.2 392.8 273.2 393.1 269.4L392.1 251.5C392.1 250.9 392.5 250.4 393.1 250.4C393.7 250.4 394.2 250.8 394.2 251.4L395.2 269.4C394.7 277.7 395.1 291.2 398.8 292.6C401.8 293.8 410.4 285.5 415.4 279.1C415.8 278.6 416.4 278.6 416.9 278.9C417.4 279.3 417.4 279.9 417.1 280.4C415.1 283 405.4 294.8 399.4 294.8Z" fill="black"/>
<path d="M381.9 271.8C381.6 271.8 381.2 271.6 381 271.3C372.9 259.8 383.5 248.6 383.6 248.5C384 248.1 384.7 248.1 385.1 248.5C385.5 248.9 385.5 249.6 385.1 250C384.7 250.4 375.6 260 382.7 270C383 270.5 382.9 271.2 382.4 271.5C382.3 271.8 382.1 271.8 381.9 271.8Z" fill="black"/>
<path d="M434.9 287.1C429.5 287.1 424.2 286.1 419.6 283.4C412.1 279 408 270.8 407.2 258.9C406.3 243.7 416.7 232 422.3 227.9C422.8 227.5 423.4 227.6 423.8 228.1C424.1 228.6 424 229.2 423.6 229.6C418.3 233.4 408.5 244.5 409.3 258.7C410 269.8 413.8 277.5 420.6 281.5C436.2 290.7 462.9 278 463.2 277.9C463.7 277.6 464.4 277.9 464.6 278.4C464.9 278.9 464.6 279.6 464.1 279.8C463.4 280.3 449.1 287.1 434.9 287.1Z" fill="black"/>
<path d="M471.1 433.2C470.4 433.1 470 432.6 470 432C473.7 394.8 452.9 333 452.7 332.4C452.5 331.8 452.8 331.2 453.4 331C454 330.8 454.6 331.1 454.8 331.7C455 332.3 475.9 394.6 472.2 432.2C472.1 432.7 471.7 433.2 471.1 433.2Z" fill="black"/>
<path d="M393.5 235C392.5 235 391.4 234.8 390.3 234.5C389.7 234.3 389.4 233.8 389.5 233.2C389.7 232.6 390.3 232.3 390.8 232.4C393.2 233.1 395.2 232.9 396.6 231.9C399.1 230.2 399.4 226.7 399.4 226.7C399.5 226.1 400 225.7 400.6 225.7C401.2 225.8 401.6 226.3 401.6 226.9C401.6 227.1 401.1 231.5 397.9 233.7C396.6 234.5 395.1 235 393.5 235Z" fill="black"/>
<path d="M491.5 176.7H454.6C454 176.7 453.5 176.2 453.5 175.6C453.5 175 454 174.5 454.6 174.5H491.5C492.1 174.5 492.6 175 492.6 175.6C492.6 176.2 492.1 176.7 491.5 176.7Z" fill="black"/>
<path d="M375.5 176.7H359C334.3 176.7 314.2 156.6 314.2 131.9V57.6C314.2 32.9 334.3 12.8 359 12.8H516.5C541.2 12.8 561.3 32.9 561.3 57.6V131.9C561.3 132.5 560.8 133 560.2 133C559.6 133 559.1 132.5 559.1 131.9V57.6C559.1 34.1 540 14.9 516.4 14.9H359C335.5 14.9 316.3 34 316.3 57.6V131.9C316.3 155.4 335.4 174.6 359 174.6H375.5C376.1 174.6 376.6 175.1 376.6 175.7C376.5 176.2 376.1 176.7 375.5 176.7Z" fill="black"/>
<path d="M471 133.6H404.5C400 133.6 396.6 132 394.9 129.1C393.2 126.2 393.6 122.5 395.9 118.6L429 61.9001C431.3 58.0001 434.4 55.8 437.8 55.8C441.2 55.8 444.3 58.0001 446.6 61.9001L479.7 118.6C482 122.5 482.3 126.3 480.7 129.1C479 132.1 475.5 133.6 471 133.6ZM437.7 58C435.1 58 432.7 59.8 430.8 63L397.7 119.7C395.8 122.9 395.5 125.9 396.7 128.1C398 130.3 400.7 131.5 404.4 131.5H471C474.7 131.5 477.5 130.3 478.7 128.1C480 125.9 479.6 122.9 477.7 119.7L444.6 63C442.8 59.8 440.3 58 437.7 58Z" fill="black"/>
<path d="M197.8 405.4C195.7 405.4 193.5 404.8 191.2 403.7C187.1 401.6 183.3 397.9 180.6 393.2C174.9 383.4 175.7 372.3 182.3 368.5C189 364.7 198.9 369.5 204.6 379.3C210.3 389.1 209.5 400.2 202.9 404C201.4 404.9 199.7 405.4 197.8 405.4ZM187.5 369.3C186 369.3 184.7 369.6 183.4 370.3C177.8 373.5 177.4 383.3 182.4 392.1C184.9 396.4 188.3 399.8 192.1 401.7C195.7 403.5 199.1 403.7 201.8 402.1C207.4 398.9 207.8 389.1 202.8 380.3C198.9 373.5 192.7 369.3 187.5 369.3Z" fill="black"/>
<path d="M709.9 477.4H633.4C632.8 477.4 632.3 476.9 632.3 476.3C632.3 475.7 632.8 475.2 633.4 475.2H709.9C710.5 475.2 711 475.7 711 476.3C711 477 710.5 477.4 709.9 477.4Z" fill="black"/>
<path d="M580.9 477.4H1.1C0.5 477.4 0 476.9 0 476.3C0 475.7 0.5 475.2 1.1 475.2H581C581.6 475.2 582.1 475.7 582.1 476.3C582 477 581.5 477.4 580.9 477.4Z" fill="black"/>
<path d="M325.3 477.4C324.7 477.4 324.2 476.9 324.2 476.3C324.2 475.7 324.7 475.2 325.3 475.2C333.7 475.2 341.4 471.3 346.3 464.5C351.2 457.7 352.5 449.2 349.9 441.2L308 315C304.5 304.4 294.6 297.2 283.4 297.2H107C105.1 297.2 103.1 297.4 101.3 297.8C100.7 297.9 100.1 297.6 100 297C99.9 296.4 100.2 295.8 100.8 295.7C102.8 295.2 104.9 295 107 295H283.4C295.5 295 306.2 302.7 310 314.2L351.8 440.5C354.7 449.2 353.2 458.3 347.9 465.7C342.7 473.2 334.4 477.4 325.3 477.4Z" fill="black"/>
<path d="M313.3 477.4H136.9C124.8 477.4 114.1 470 110.3 459L68.4 338.2C65.6 330.2 66.9 321.6 71.8 314.6C77 307.3 85.7 302.9 95 302.9H271.4C283.5 302.9 294.2 310.3 298 321.3L339.8 442.1C342.6 450.1 341.3 458.7 336.4 465.7C331.2 473 322.6 477.4 313.3 477.4ZM95 305C86.4 305 78.4 309.1 73.6 315.8C69 322.2 67.9 330.1 70.4 337.5L112.2 458.3C115.7 468.4 125.6 475.3 136.8 475.3H313.2C321.8 475.3 329.8 471.3 334.6 464.5C339.2 458.1 340.3 450.2 337.8 442.8L296 322C292.5 311.9 282.6 305 271.4 305H95Z" fill="black"/>
<path d="M377 477.4C372.9 477.4 370.1 476.3 368.8 474.1C366.2 469.9 369.8 463.1 372.6 457.6C373.2 456.5 373.7 455.4 374.2 454.5C374.7 453.5 375.1 452.3 375.6 451.1C378.6 443.5 383.1 432 398.7 434.7C399.5 434.9 416.9 439.9 427.6 447.3C428.1 447.6 428.2 448.3 427.9 448.8C427.6 449.3 426.9 449.4 426.4 449.1C416 441.9 398.4 436.9 398.2 436.8C384.3 434.4 380.4 444.5 377.5 451.9C377 453.2 376.5 454.4 376 455.4C375.6 456.3 375 457.4 374.4 458.6C372 463.3 368.6 469.8 370.5 473C371.4 474.5 373.5 475.2 376.9 475.2C391.2 475.2 393.7 457.2 393.7 457C393.7 456.4 394.2 455.9 394.8 455.9C395.4 455.9 395.9 456.4 395.9 457C395.9 459.7 392.2 477.4 377 477.4Z" fill="black"/>
<path d="M364.3 477.4C355.7 476.8 352.7 473.8 351.7 471.4C350.3 468 352 464.5 354 462.2C355.6 460.4 357.3 456.1 359.1 451.6C361.6 445.2 364.4 438 368.3 433.7C375.4 426 390 434.1 390.6 434.5C391.1 434.8 391.3 435.5 391 436C390.7 436.5 390 436.7 389.5 436.4C389.4 436.3 375.8 428.7 369.9 435.2C366.3 439.1 363.5 446.2 361.1 452.4C359.2 457.4 357.5 461.6 355.6 463.7C354.1 465.4 352.7 468.2 353.7 470.6C354.8 473.3 358.5 474.9 364.4 475.3C365 475.3 365.4 475.9 365.4 476.4C365.3 477 364.8 477.4 364.3 477.4Z" fill="black"/>
<path d="M414.9 477.5C414.5 477.5 414.1 477.5 413.8 477.5C394.6 476.5 393.1 460.9 393.1 460.7C393.1 460.1 393.5 459.6 394.1 459.5C394.7 459.5 395.2 459.9 395.3 460.5C395.3 461.1 396.6 474.4 413.9 475.3C415 475.4 416 475.3 416.9 475.2C417.4 475.1 418 475.6 418.1 476.1C418.2 476.7 417.8 477.2 417.2 477.3C416.5 477.4 415.7 477.5 414.9 477.5Z" fill="black"/>
<path d="M414.3 477.4C413.9 477.4 413.6 477.2 413.4 476.9C413.1 476.4 413.2 475.7 413.7 475.4C423.3 469.1 428.2 457.3 426.4 445.4C423.8 429.1 409.1 417.8 393.7 420.2C388.6 421 380.9 423.2 371.9 432.7C371.5 433.1 370.8 433.2 370.4 432.8C370 432.4 369.9 431.7 370.4 431.3C379.8 421.3 388 419 393.4 418.1C409.9 415.4 425.8 427.6 428.5 445.1C430.5 457.8 425.2 470.4 414.9 477.2C414.7 477.4 414.5 477.4 414.3 477.4Z" fill="black"/>
<path d="M350.3 439.6C349.5 439.4 349.1 438.8 349.3 438.3C349.4 438 351.2 431.3 356.4 429.1C363 426.4 370.5 432.4 370.8 432.7C371.3 433.1 371.3 433.8 371 434.2C370.6 434.7 369.9 434.7 369.5 434.4C369.4 434.3 362.7 428.9 357.3 431.1C353.1 432.9 351.4 438.8 351.4 438.9C351.2 439.3 350.8 439.6 350.3 439.6Z" fill="black"/>
<path d="M344.7 476.3C342.8 476.3 340.6 475.8 338.2 474.5C337.7 474.2 337.5 473.6 337.8 473C338.1 472.5 338.8 472.3 339.3 472.6C347 476.9 351.9 471 352.1 470.8C352.5 470.3 353.1 470.3 353.6 470.6C354.1 471 354.1 471.6 353.8 472.1C353.7 472.1 350.2 476.3 344.7 476.3Z" fill="black"/>
<path d="M436.5 237.1H434C426.1 237.1 419.6 228 419.6 216.7C419.6 205.5 426.1 196.3 434 196.3H435.8C436.4 196.3 436.9 196.8 436.9 197.4C436.9 198 436.4 198.5 435.8 198.5H434C427.3 198.5 421.8 206.7 421.8 216.7C421.8 226.7 427.3 234.9 434 234.9H436.5C437.1 234.9 437.6 235.4 437.6 236C437.6 236.6 437.1 237.1 436.5 237.1Z" fill="black"/>
<path d="M436.9 237.1C430.4 237.1 425.4 228.2 425.4 216.7C425.4 205.3 430.5 196.3 436.9 196.3C443.4 196.3 448.4 205.2 448.4 216.7C448.4 228.1 443.4 237.1 436.9 237.1ZM436.9 198.5C431.8 198.5 427.5 206.8 427.5 216.7C427.5 226.6 431.8 234.9 436.9 234.9C442 234.9 446.3 226.6 446.3 216.7C446.3 206.9 442 198.5 436.9 198.5Z" fill="black"/>
<path d="M375.5 233.9C375.2 233.9 375 233.8 374.8 233.6C370.8 230.2 368.8 224.5 368.8 216.7C368.8 209.4 370.9 203.7 374.8 200.1C375.2 199.7 375.9 199.7 376.3 200.2C376.7 200.6 376.7 201.3 376.2 201.7C372.7 204.8 370.9 210 370.9 216.7C370.9 223.8 372.7 229 376.2 231.9C376.7 232.3 376.7 233 376.3 233.4C376.1 233.7 375.8 233.9 375.5 233.9Z" fill="black"/>
<path d="M437.7 198.3C437.1 198.3 436.6 197.8 436.6 197.2C437.7 164 414.6 161.6 413.5 161.3C413.4 161.3 413.3 161.2 413.2 161.2C407.2 159.5 401.6 159.6 398.7 160.7C404.4 161.5 415.3 164.1 423 172.3C428.9 178.6 431.7 187 431.4 197.2C431.4 197.8 430.9 198.2 430.3 198.2C429.7 198.2 429.2 197.7 429.3 197.1C429.6 187.5 427 179.6 421.5 173.8C411.5 163.1 395.2 162.5 395 162.5C394.5 162.5 394.1 162.2 394 161.8C393.9 161.4 394 160.9 394.4 160.6C394.7 160.4 402.8 156 414 158.2C416.4 158.8 440 163.5 438.8 197.3C438.8 197.9 438.3 198.3 437.7 198.3Z" fill="black"/>
<path d="M354.5 432.6C354 432.6 353.6 432.3 353.5 431.8C335.4 366.1 349.8 325.2 349.9 324.8C350.1 324.2 350.7 324 351.3 324.2C351.9 324.4 352.1 325 351.9 325.6C351.8 326 337.6 366.3 355.5 431.3C355.7 431.9 355.3 432.5 354.8 432.6C354.7 432.5 354.6 432.6 354.5 432.6Z" fill="black"/>
<path d="M85.6 306.6C85.2 306.6 84.9 306.4 84.7 306.1C84.4 305.6 84.6 304.9 85.1 304.6L100.6 295.9C101.1 295.6 101.8 295.8 102.1 296.3C102.4 296.8 102.2 297.5 101.7 297.8L86.2 306.5C85.9 306.6 85.8 306.6 85.6 306.6Z" fill="black"/>
<path d="M663.7 265.2C666.3 265.2 668.4 263.1 668.4 260.5C668.4 257.9 666.3 255.8 663.7 255.8C661.1 255.8 659 257.9 659 260.5C659 263.1 661.1 265.2 663.7 265.2Z" fill="#1A1A1A"/>
<path d="M700 265.5C702.7 265.5 704.9 263.3 704.9 260.6C704.9 257.9 702.7 255.7 700 255.7C697.3 255.7 695.1 257.9 695.1 260.6C695.1 263.3 697.3 265.5 700 265.5Z" fill="#1A1A1A"/>
<path d="M736.3 265.1C738.8 265.1 740.9 263.1 740.9 260.5C740.9 258 738.9 255.9 736.3 255.9C733.8 255.9 731.7 257.9 731.7 260.5C731.8 263.1 733.8 265.1 736.3 265.1Z" fill="#1A1A1A"/>
<path d="M663.7 301.8C666.4 301.8 668.6 299.6 668.6 296.9C668.6 294.2 666.4 292 663.7 292C661 292 658.8 294.2 658.8 296.9C658.8 299.6 661 301.8 663.7 301.8Z" fill="#1A1A1A"/>
<path d="M700 302C702.8 302 705.2 299.7 705.2 296.8C705.2 294 702.9 291.6 700 291.6C697.2 291.6 694.8 293.9 694.8 296.8C694.9 299.7 697.2 302 700 302Z" fill="#1A1A1A"/>
<path d="M736.3 301.7C738.9 301.7 741.1 299.6 741.1 296.9C741.1 294.3 739 292.1 736.3 292.1C733.7 292.1 731.5 294.2 731.5 296.9C731.6 299.5 733.7 301.7 736.3 301.7Z" fill="#1A1A1A"/>
<path d="M663.7 337.8C666.241 337.8 668.3 335.74 668.3 333.2C668.3 330.659 666.241 328.6 663.7 328.6C661.16 328.6 659.1 330.659 659.1 333.2C659.1 335.74 661.16 337.8 663.7 337.8Z" fill="#1A1A1A"/>
<path d="M700 338C702.6 338 704.8 335.9 704.8 333.2C704.8 330.6 702.7 328.4 700 328.4C697.4 328.4 695.2 330.5 695.2 333.2C695.2 335.8 697.4 338 700 338Z" fill="#1A1A1A"/>
<path d="M736.3 337.7C738.8 337.7 740.8 335.7 740.8 333.2C740.8 330.7 738.8 328.7 736.3 328.7C733.8 328.7 731.8 330.7 731.8 333.2C731.9 335.7 733.9 337.7 736.3 337.7Z" fill="#1A1A1A"/>
<path d="M491.5 251.3C491.4 251.3 491.2 251.3 491.1 251.2C490.7 251 490.4 250.6 490.4 250.2V157.9C490.4 143.6 502.1 131.9 516.4 131.9H654C668.3 131.9 680 143.6 680 157.9V195.2C680 209.5 668.3 221.2 654 221.2H522L492.3 250.9C492.1 251.1 491.8 251.3 491.5 251.3ZM516.5 134C503.3 134 492.6 144.7 492.6 157.9V247.6L520.8 219.4C521 219.2 521.3 219.1 521.6 219.1H654.2C667.4 219.1 678.1 208.4 678.1 195.2V157.9C678.1 144.7 667.4 134 654.2 134H516.5Z" fill="black"/>
<path d="M585.3 188C578.4 188 572.8 182.4 572.8 175.5C572.8 168.6 578.4 163 585.3 163C592.2 163 597.8 168.6 597.8 175.5C597.7 182.5 592.1 188 585.3 188ZM585.3 165.3C579.6 165.3 575 169.9 575 175.6C575 181.3 579.6 185.9 585.3 185.9C591 185.9 595.6 181.3 595.6 175.6C595.6 169.9 591 165.3 585.3 165.3Z" fill="black"/>
<path d="M530.8 188C523.9 188 518.3 182.4 518.3 175.5C518.3 168.6 523.9 163 530.8 163C537.7 163 543.3 168.6 543.3 175.5C543.3 182.5 537.7 188 530.8 188ZM530.8 165.3C525.1 165.3 520.5 169.9 520.5 175.6C520.5 181.3 525.1 185.9 530.8 185.9C536.5 185.9 541.1 181.3 541.1 175.6C541.1 169.9 536.5 165.3 530.8 165.3Z" fill="black"/>
<path d="M641.9 188C635 188 629.4 182.4 629.4 175.5C629.4 168.6 635 163 641.9 163C648.8 163 654.4 168.6 654.4 175.5C654.4 182.5 648.8 188 641.9 188ZM641.9 165.3C636.2 165.3 631.6 169.9 631.6 175.6C631.6 181.3 636.2 185.9 641.9 185.9C647.6 185.9 652.2 181.3 652.2 175.6C652.2 169.9 647.6 165.3 641.9 165.3Z" fill="black"/>
<path d="M285.7 270.4H191.5C190.9 270.4 190.4 269.9 190.4 269.3C190.4 268.7 190.9 268.2 191.5 268.2H284.2L261.4 203.7H167.7C167.1 203.7 166.6 203.2 166.6 202.6C166.6 202 167.1 201.5 167.7 201.5H262.2C262.7 201.5 263.1 201.8 263.2 202.2L286.8 268.8C286.9 269.1 286.9 269.5 286.7 269.8C286.4 270.2 286 270.4 285.7 270.4Z" fill="black"/>
<path d="M191.5 270.4C191.1 270.4 190.6 270.1 190.5 269.7L166.9 203.1C166.7 202.5 167 201.9 167.6 201.7C168.2 201.5 168.8 201.8 169 202.4L192.6 269C192.8 269.6 192.5 270.2 191.9 270.4C191.7 270.4 191.6 270.4 191.5 270.4Z" fill="black"/>
<path d="M172.8 217.8H119C118.4 217.8 117.9 217.3 117.9 216.7C117.9 216.1 118.4 215.6 119 215.6H172.8C173.4 215.6 173.9 216.1 173.9 216.7C173.9 217.3 173.4 217.8 172.8 217.8Z" fill="black"/>
<path d="M185.1 203.8C184.7 203.8 184.2 203.5 184.1 203.1L171.5 167.6H101C100.4 167.6 99.9 167.1 99.9 166.5C99.9 165.9 100.4 165.4 101 165.4H172.3C172.8 165.4 173.2 165.7 173.3 166.1L186.1 202.3C186.3 202.9 186 203.5 185.4 203.7C185.4 203.8 185.2 203.8 185.1 203.8Z" fill="black"/>
<path d="M119 217.8C118.6 217.8 118.1 217.5 118 217.1L100.2 166.9C100 166.3 100.3 165.7 100.9 165.5C101.5 165.3 102.1 165.6 102.3 166.2L120.1 216.4C120.3 217 120 217.6 119.4 217.8C119.3 217.7 119.1 217.8 119 217.8Z" fill="black"/>
<path d="M254.1 230.3H194.3C193.7 230.3 193.2 229.8 193.2 229.2C193.2 228.6 193.7 228.1 194.3 228.1H254.1C254.7 228.1 255.2 228.6 255.2 229.2C255.2 229.8 254.7 230.3 254.1 230.3Z" fill="black"/>
<path d="M259 243.9H199.2C198.6 243.9 198.1 243.4 198.1 242.8C198.1 242.2 198.6 241.7 199.2 241.7H259C259.6 241.7 260.1 242.2 260.1 242.8C260.1 243.4 259.6 243.9 259 243.9Z" fill="black"/>
<path d="M154.5 281.4C154.3 281.4 154 281.3 153.9 281.2C150.6 278.7 147.4 275.9 144.5 273C144.1 272.6 144.1 271.9 144.5 271.5C144.9 271.1 145.6 271.1 146 271.5C148.9 274.4 152 277 155.2 279.5C155.7 279.9 155.8 280.5 155.4 281C155.2 281.3 154.8 281.4 154.5 281.4ZM137.1 264C136.8 264 136.4 263.9 136.2 263.6C133.7 260.3 131.5 256.8 129.4 253.1C129.1 252.6 129.3 251.9 129.8 251.6C130.3 251.3 131 251.5 131.3 252C133.3 255.6 135.5 259 137.9 262.2C138.3 262.7 138.2 263.4 137.7 263.7C137.6 264 137.4 264 137.1 264ZM125.2 242.5C124.8 242.5 124.4 242.2 124.2 241.8C123.3 239.5 122.5 237.2 121.7 234.7C121.5 234.1 121.8 233.5 122.4 233.4C123 233.2 123.6 233.5 123.7 234.1C124.4 236.5 125.2 238.8 126.1 241C126.3 241.6 126 242.2 125.5 242.4C125.5 242.5 125.4 242.5 125.2 242.5Z" fill="black"/>
<path d="M385.6 226.9C383.7 226.9 381.8 226.1 380.6 224.6C379.2 223 378.8 220.8 379.4 218.7C380.3 215.9 382.3 216.1 383.4 216.3C383.7 216.3 384 216.4 384.1 216.3C384.7 214.7 385.3 208.3 385.5 204.4C385.5 203.8 385.9 203.5 386.6 203.4C387.2 203.4 387.6 203.9 387.6 204.5C387.5 205.5 386.9 214.7 386.1 217C385.4 218.7 383.9 218.6 383.1 218.4C382.1 218.3 381.8 218.2 381.4 219.4C380.9 220.8 381.2 222.2 382.1 223.3C383.1 224.5 384.7 225 386.3 224.8C386.9 224.7 387.4 225.1 387.5 225.7C387.6 226.3 387.2 226.8 386.6 226.9C386.4 226.9 386 226.9 385.6 226.9Z" fill="black"/>
</svg>
