<svg width="128" height="28" viewBox="0 0 128 28" fill="none" xmlns="http://www.w3.org/2000/svg">
<path d="M26.518 3.38695C24.1909 1.04289 22.2085 1.04289 19.8814 3.38695L5.91871 17.4513L7.90106 19.448C10.2282 21.7921 12.2105 21.7921 14.5376 19.448L28.5003 5.38373L26.518 3.38695Z" fill="#05AA76"/>
<path d="M29.836 6.72949L22.2083 14.4562C20.3983 16.2793 20.3983 18.6668 21.8635 20.1427C23.3287 21.6186 25.6989 21.662 27.5089 19.7954L31.8184 15.4546C34.1455 13.1105 34.1455 11.0703 31.8184 8.72628L29.836 6.72949Z" fill="#05AA76"/>
<path d="M12.5552 2.73558C11.09 1.25969 8.76285 1.21629 6.90977 3.03944L2.60031 7.38027C0.31629 9.72432 0.31629 11.7645 2.60031 14.1086L4.58266 16.1054L12.2104 8.42207C14.0635 6.55551 14.0204 4.21146 12.5552 2.73558Z" fill="#05AA76"/>
<path d="M67.6732 6.72917H63.0621L57.8476 11.8514V0.782227H54.0984V21.5748H57.8476V16.4092L59.6145 14.6295L64.0102 21.5748H68.2334L62.2433 12.0684L67.6732 6.72917Z" fill="#05AA76"/>
<path d="M82.3255 6.72949H78.5332V14.6298C78.5332 15.8018 78.1884 16.8002 77.542 17.625C76.8525 18.4063 76.0337 18.8404 74.9563 18.8404C74.0944 18.8404 73.448 18.5366 73.0602 17.9288C72.6292 17.3211 72.4568 16.4096 72.4568 15.1507V6.72949H68.6645V15.1073C68.6645 17.3211 69.0955 19.0141 69.9573 20.1427C70.8192 21.2713 72.1121 21.879 73.7928 21.879C74.9132 21.879 75.9044 21.6186 76.7663 21.0977C77.6282 20.5768 78.2746 19.8822 78.6194 18.9706H78.6625C78.6625 19.8388 78.7917 20.707 78.921 21.5751H82.4979C82.3255 20.0559 82.2824 18.797 82.2824 17.7986V6.72949H82.3255Z" fill="#05AA76"/>
<path d="M92.7975 6.42529C91.8494 6.42529 90.9444 6.64233 90.1687 7.03301C89.393 7.42369 88.7466 7.98799 88.2726 8.68253H88.2295C88.2295 7.98799 88.1864 7.33687 88.1433 6.72915H84.6095C84.6957 7.77095 84.7388 9.0732 84.7388 10.6793V27.5218H88.5311V20.0555H88.6173C88.9621 20.6198 89.5223 21.0539 90.2549 21.4012C90.9875 21.705 91.8063 21.8787 92.7544 21.8787C94.6937 21.8787 96.202 21.1841 97.2794 19.8385C98.3567 18.4928 98.917 16.5828 98.917 14.1954C98.917 11.8079 98.3567 9.89796 97.2794 8.50889C96.1589 7.11983 94.6506 6.42529 92.7975 6.42529ZM94.2627 17.7549C93.7025 18.623 92.9268 19.0571 91.8925 19.0571C90.9444 19.0571 90.1257 18.7533 89.4792 18.1021C88.8328 17.451 88.4881 16.6697 88.4881 15.7147V12.6761C88.4881 11.6777 88.7897 10.8964 89.4361 10.2886C90.0826 9.68092 90.9014 9.37706 91.9356 9.37706C94.0473 9.37706 95.0815 10.9398 95.0815 14.1086C95.0815 15.6279 94.7799 16.8867 94.2627 17.7549Z" fill="#05AA76"/>
<path d="M107.967 6.25195C105.597 6.25195 103.744 6.94649 102.408 8.29215C101.072 9.63781 100.382 11.5478 100.382 13.9786C100.382 16.4095 101.029 18.2761 102.408 19.6651C103.744 21.0108 105.597 21.7053 107.967 21.7053C110.337 21.7053 112.19 21.0108 113.569 19.6651C114.905 18.3195 115.595 16.4095 115.595 13.9786C115.595 11.5478 114.905 9.68121 113.569 8.29215C112.233 6.94649 110.337 6.25195 107.967 6.25195ZM110.811 17.5815C110.122 18.4497 109.173 18.8838 107.967 18.8838C106.76 18.8838 105.812 18.4497 105.166 17.5815C104.476 16.7134 104.131 15.4979 104.131 13.9786C104.131 12.4593 104.476 11.2439 105.166 10.3757C105.855 9.50758 106.76 9.0735 107.967 9.0735C109.173 9.0735 110.122 9.50758 110.811 10.3757C111.501 11.2439 111.845 12.4593 111.845 13.9786C111.845 15.4979 111.501 16.7134 110.811 17.5815Z" fill="#05AA76"/>
<path d="M50.4353 11.3306C49.7027 10.7228 48.7115 10.1585 47.4617 9.55081C46.9877 9.33377 46.5568 9.11673 46.1689 8.89969C45.5225 8.55242 44.9623 8.29197 44.5744 8.03152C43.928 7.64085 43.497 7.29358 43.2385 6.98972C42.9799 6.68586 42.8506 6.3386 42.8506 5.90451C42.8506 5.25339 43.1092 4.73249 43.5832 4.38522C44.0573 4.03795 44.7899 3.86432 45.6949 3.86432C47.117 3.86432 48.3236 4.47204 49.3148 5.68747L51.7281 3.2566C51.211 2.43184 50.4353 1.78072 49.4441 1.30323C48.2805 0.738917 46.9877 0.435059 45.4794 0.435059C44.1435 0.435059 42.9368 0.6521 41.9025 1.12959C40.8683 1.56368 40.0495 2.2148 39.4892 3.03956C38.929 3.86432 38.6273 4.8193 38.6273 5.90451C38.6273 6.9029 38.8428 7.77107 39.2307 8.50901C39.6185 9.24696 40.2649 9.94149 41.0837 10.5926C41.644 10.9833 42.3335 11.4174 43.1092 11.8949C43.5401 12.1553 44.0142 12.3724 44.5313 12.6328C45.6518 13.1971 46.4706 13.6312 46.9446 13.9351C47.4187 14.2823 47.7634 14.5862 47.9358 14.89C48.1082 15.1939 48.1944 15.628 48.1944 16.1055C48.1944 16.8 47.9358 17.3209 47.3756 17.755C46.8153 18.1891 46.0827 18.3627 45.1777 18.3627C44.3589 18.3627 43.497 18.1023 42.5921 17.6248C41.6871 17.1473 40.8683 16.4962 40.2218 15.7148L37.7654 18.1023C38.5411 19.2743 39.5754 20.1859 40.8252 20.837C42.0749 21.4881 43.4539 21.792 45.0054 21.792C46.4706 21.792 47.7634 21.5315 48.8839 21.054C50.0043 20.5765 50.8662 19.882 51.4265 18.9704C52.0298 18.0589 52.3314 17.0171 52.3314 15.845C52.3314 14.8466 52.1591 13.9785 51.8574 13.2405C51.6419 12.5894 51.1248 11.8949 50.4353 11.3306Z" fill="#05AA76"/>
<path d="M127.489 15.2371C127.23 14.7162 126.756 14.2822 126.153 13.8481C125.549 13.4574 124.688 13.0233 123.61 12.5892C123.567 12.5458 123.481 12.5458 123.438 12.5024C123.395 12.5024 123.352 12.459 123.309 12.459C123.222 12.4156 123.136 12.3722 123.007 12.3288C122.921 12.2854 122.834 12.242 122.748 12.242C122.662 12.1986 122.576 12.1551 122.533 12.1551C122.533 12.1551 122.533 12.1551 122.49 12.1551C122.404 12.1117 122.36 12.1117 122.274 12.0683H122.231C122.188 12.0249 122.102 12.0249 122.059 11.9815C122.016 11.9815 122.016 11.9815 121.973 11.9381C121.93 11.9381 121.886 11.8947 121.843 11.8947C121.8 11.8947 121.8 11.8513 121.757 11.8513C121.714 11.8513 121.714 11.8079 121.671 11.8079C121.628 11.7645 121.585 11.7645 121.499 11.7211C121.111 11.504 120.852 11.3304 120.723 11.1568C120.594 10.9831 120.507 10.7661 120.507 10.4622C120.507 10.0715 120.68 9.76769 120.981 9.55065C121.326 9.3336 121.757 9.24679 122.36 9.24679C123.524 9.24679 124.472 9.68087 125.162 10.5056L127.101 8.55225C126.584 7.90113 125.937 7.42364 125.205 7.03296C124.3 6.59888 123.309 6.38184 122.231 6.38184C120.594 6.38184 119.258 6.77251 118.266 7.51045C117.275 8.2484 116.758 9.24679 116.758 10.4622C116.758 11.504 117.103 12.3722 117.836 13.1101C117.922 13.1969 118.008 13.2838 118.094 13.3272C118.137 13.3706 118.18 13.3706 118.223 13.414C118.266 13.4574 118.353 13.5008 118.396 13.5442C118.439 13.5876 118.482 13.631 118.568 13.6744C118.611 13.7178 118.697 13.7613 118.741 13.8047C118.784 13.8481 118.87 13.8915 118.913 13.9349C118.956 13.9783 119.042 14.0217 119.085 14.0217C119.171 14.0651 119.215 14.1085 119.301 14.1519C119.344 14.1953 119.43 14.1953 119.473 14.2387C119.559 14.2822 119.645 14.3256 119.732 14.369C119.775 14.4124 119.861 14.4124 119.904 14.4558C119.99 14.4992 120.076 14.5426 120.206 14.586C120.249 14.6294 120.335 14.6294 120.378 14.6728C120.464 14.7162 120.594 14.7596 120.68 14.8031C120.723 14.8031 120.723 14.8465 120.766 14.8465C120.852 14.8899 120.981 14.9333 121.068 14.9767C121.24 15.0635 121.412 15.1069 121.585 15.1937C122.619 15.5844 123.265 15.9317 123.61 16.1487C123.912 16.4092 124.084 16.713 124.084 17.1471C124.084 17.668 123.869 18.1021 123.438 18.4494C123.007 18.7966 122.447 18.9703 121.8 18.9703C121.24 18.9703 120.68 18.84 120.12 18.5362C119.559 18.2323 119.128 17.8416 118.784 17.3642L116.715 19.4478C117.103 20.0989 117.706 20.6198 118.525 21.0539C119.516 21.5748 120.637 21.8352 121.886 21.8352C123.05 21.8352 124.127 21.6182 124.989 21.2275C125.894 20.8368 126.584 20.2725 127.101 19.5346C127.618 18.7966 127.833 17.9719 127.833 17.0169C127.877 16.3223 127.747 15.7146 127.489 15.2371Z" fill="#05AA76"/>
</svg>
