<svg width="193" height="37" viewBox="0 0 193 37" fill="none" xmlns="http://www.w3.org/2000/svg">
<path d="M39.5801 22.3877H42.1377C42.1963 22.9033 42.4688 23.3223 42.9551 23.6445C43.4473 23.9609 44.0479 24.1191 44.7568 24.1191C45.46 24.1191 46.0312 23.9697 46.4707 23.6709C46.916 23.3662 47.1387 22.9795 47.1387 22.5107C47.1387 22.1006 46.9746 21.7695 46.6465 21.5176C46.3184 21.2656 45.7705 21.0547 45.0029 20.8848L43.3506 20.5244C41.0244 20.0264 39.8613 18.8457 39.8613 16.9824C39.8613 15.8223 40.3125 14.8848 41.2148 14.1699C42.123 13.4551 43.2891 13.0977 44.7129 13.0977C46.1777 13.0977 47.3467 13.4463 48.2197 14.1436C49.0928 14.835 49.541 15.7578 49.5645 16.9121H47.0771C47.0361 16.3789 46.7988 15.96 46.3652 15.6553C45.9375 15.3447 45.3896 15.1895 44.7217 15.1895C44.0654 15.1895 43.5352 15.333 43.1309 15.6201C42.7324 15.9072 42.5332 16.2852 42.5332 16.7539C42.5332 17.1406 42.6943 17.4541 43.0166 17.6943C43.3447 17.9346 43.875 18.1396 44.6074 18.3096L46.1455 18.6348C47.417 18.9043 48.3428 19.3262 48.9229 19.9004C49.5029 20.4688 49.793 21.2363 49.793 22.2031C49.793 23.4336 49.3301 24.4121 48.4043 25.1387C47.4785 25.8594 46.2275 26.2197 44.6514 26.2197C43.1221 26.2197 41.9033 25.8799 40.9951 25.2002C40.0928 24.5146 39.6211 23.5771 39.5801 22.3877ZM51.8936 14.4072H54.46V16.5781H56.2002V18.5117H54.46V23.0205C54.46 23.7295 54.8291 24.084 55.5674 24.084C55.8076 24.084 56.0156 24.0693 56.1914 24.04V25.9297C55.8926 26 55.4854 26.0352 54.9697 26.0352C53.8623 26.0352 53.0713 25.8359 52.5967 25.4375C52.1279 25.0391 51.8936 24.3799 51.8936 23.46V18.5117H50.5664V16.5781H51.8936V14.4072ZM61.1572 24.2949C61.7256 24.2949 62.2061 24.1309 62.5986 23.8027C62.9971 23.4688 63.1963 23.0498 63.1963 22.5459V21.8604L61.21 21.9834C60.7295 22.0186 60.3574 22.1387 60.0938 22.3438C59.8359 22.5488 59.707 22.8184 59.707 23.1523C59.707 23.5039 59.8389 23.7822 60.1025 23.9873C60.3662 24.1924 60.7178 24.2949 61.1572 24.2949ZM60.3135 26.1494C59.4053 26.1494 58.6523 25.8828 58.0547 25.3496C57.457 24.8164 57.1582 24.1309 57.1582 23.293C57.1582 22.4375 57.4746 21.7666 58.1074 21.2803C58.7402 20.7939 59.6455 20.5156 60.8232 20.4453L63.1963 20.3047V19.6807C63.1963 19.2471 63.0527 18.9072 62.7656 18.6611C62.4844 18.415 62.1006 18.292 61.6143 18.292C61.1455 18.292 60.7617 18.3975 60.4629 18.6084C60.1699 18.8193 59.9912 19.1035 59.9268 19.4609H57.5801C57.627 18.5352 58.0225 17.791 58.7666 17.2285C59.5107 16.6602 60.498 16.376 61.7285 16.376C62.9355 16.376 63.9023 16.6631 64.6289 17.2373C65.3555 17.8115 65.7188 18.5732 65.7188 19.5225V26H63.2402V24.5586H63.1875C62.9297 25.0508 62.5371 25.4404 62.0098 25.7275C61.4824 26.0088 60.917 26.1494 60.3135 26.1494ZM67.3799 26V16.5781H69.8584V18.2744H69.9111C70.0752 17.6768 70.3506 17.2197 70.7373 16.9033C71.124 16.5869 71.5957 16.4287 72.1523 16.4287C72.4219 16.4287 72.665 16.4609 72.8818 16.5254V18.7842C72.6416 18.6846 72.3311 18.6348 71.9502 18.6348C71.3174 18.6348 70.8252 18.8193 70.4736 19.1885C70.1221 19.5576 69.9463 20.0732 69.9463 20.7354V26H67.3799ZM74.6221 14.4072H77.1885V16.5781H78.9287V18.5117H77.1885V23.0205C77.1885 23.7295 77.5576 24.084 78.2959 24.084C78.5361 24.084 78.7441 24.0693 78.9199 24.04V25.9297C78.6211 26 78.2139 26.0352 77.6982 26.0352C76.5908 26.0352 75.7998 25.8359 75.3252 25.4375C74.8564 25.0391 74.6221 24.3799 74.6221 23.46V18.5117H73.2949V16.5781H74.6221V14.4072ZM89.0361 16.5781V26H86.5576V24.3037H86.5049C86.0127 25.5518 85.0723 26.1758 83.6836 26.1758C82.6523 26.1758 81.8291 25.8623 81.2139 25.2354C80.5986 24.6025 80.291 23.7412 80.291 22.6514V16.5781H82.8574V22.1152C82.8574 22.7422 83.0068 23.2197 83.3057 23.5479C83.6104 23.876 84.0469 24.04 84.6152 24.04C85.1836 24.04 85.6348 23.8525 85.9688 23.4775C86.3027 23.1025 86.4697 22.6016 86.4697 21.9746V16.5781H89.0361ZM96.208 16.4287C97.4033 16.4287 98.3438 16.8594 99.0293 17.7207C99.7207 18.582 100.066 19.7715 100.066 21.2891C100.066 22.8008 99.7266 23.9902 99.0469 24.8574C98.3672 25.7188 97.4355 26.1494 96.252 26.1494C95.5781 26.1494 94.9834 25.9971 94.4678 25.6924C93.958 25.3818 93.5771 24.957 93.3252 24.418H93.2725V29.0762H90.7061V16.5781H93.2373V18.2217H93.29C93.5479 17.6592 93.9287 17.2197 94.4326 16.9033C94.9424 16.5869 95.5342 16.4287 96.208 16.4287ZM95.3467 24.084C95.9854 24.084 96.4922 23.832 96.8672 23.3281C97.248 22.8242 97.4385 22.1445 97.4385 21.2891C97.4385 20.4336 97.248 19.7539 96.8672 19.25C96.4922 18.7402 95.9854 18.4854 95.3467 18.4854C94.7197 18.4854 94.2158 18.7432 93.835 19.2588C93.4541 19.7686 93.2637 20.4453 93.2637 21.2891C93.2637 22.1387 93.4512 22.8184 93.8262 23.3281C94.207 23.832 94.7139 24.084 95.3467 24.084ZM109.813 23.8027V26H101.613V13.3174H104.268V23.8027H109.813ZM114.806 24.2949C115.374 24.2949 115.854 24.1309 116.247 23.8027C116.646 23.4688 116.845 23.0498 116.845 22.5459V21.8604L114.858 21.9834C114.378 22.0186 114.006 22.1387 113.742 22.3438C113.484 22.5488 113.355 22.8184 113.355 23.1523C113.355 23.5039 113.487 23.7822 113.751 23.9873C114.015 24.1924 114.366 24.2949 114.806 24.2949ZM113.962 26.1494C113.054 26.1494 112.301 25.8828 111.703 25.3496C111.105 24.8164 110.807 24.1309 110.807 23.293C110.807 22.4375 111.123 21.7666 111.756 21.2803C112.389 20.7939 113.294 20.5156 114.472 20.4453L116.845 20.3047V19.6807C116.845 19.2471 116.701 18.9072 116.414 18.6611C116.133 18.415 115.749 18.292 115.263 18.292C114.794 18.292 114.41 18.3975 114.111 18.6084C113.818 18.8193 113.64 19.1035 113.575 19.4609H111.229C111.275 18.5352 111.671 17.791 112.415 17.2285C113.159 16.6602 114.146 16.376 115.377 16.376C116.584 16.376 117.551 16.6631 118.277 17.2373C119.004 17.8115 119.367 18.5732 119.367 19.5225V26H116.889V24.5586H116.836C116.578 25.0508 116.186 25.4404 115.658 25.7275C115.131 26.0088 114.565 26.1494 113.962 26.1494ZM121.028 26V16.5781H123.507V18.2568H123.56C123.817 17.6592 124.192 17.2021 124.685 16.8857C125.183 16.5635 125.789 16.4023 126.504 16.4023C127.547 16.4023 128.353 16.7129 128.921 17.334C129.489 17.9551 129.773 18.8193 129.773 19.9268V26H127.207V20.4629C127.207 19.8418 127.061 19.3643 126.768 19.0303C126.475 18.6963 126.044 18.5293 125.476 18.5293C124.907 18.5293 124.45 18.7197 124.104 19.1006C123.765 19.4814 123.595 19.9795 123.595 20.5947V26H121.028ZM134.897 26.1494C133.72 26.1494 132.785 25.7129 132.094 24.8398C131.402 23.9668 131.057 22.7773 131.057 21.2715C131.057 19.7773 131.402 18.5967 132.094 17.7295C132.791 16.8623 133.731 16.4287 134.915 16.4287C135.583 16.4287 136.169 16.5898 136.673 16.9121C137.183 17.2344 137.555 17.6621 137.789 18.1953H137.842V13.3174H140.408V26H137.877V24.3828H137.833C137.599 24.916 137.221 25.3438 136.699 25.666C136.178 25.9883 135.577 26.1494 134.897 26.1494ZM135.768 18.4854C135.123 18.4854 134.613 18.7373 134.238 19.2412C133.869 19.7451 133.685 20.4277 133.685 21.2891C133.685 22.1562 133.869 22.8389 134.238 23.3369C134.613 23.835 135.123 24.084 135.768 24.084C136.406 24.084 136.913 23.835 137.288 23.3369C137.669 22.833 137.859 22.1504 137.859 21.2891C137.859 20.4336 137.669 19.7539 137.288 19.25C136.913 18.7402 136.406 18.4854 135.768 18.4854Z" fill="#0F2137"/>
<g clip-path="url(#clip0)">
<path d="M20.2107 0.539326C16.7919 -0.368329 13.166 -0.132153 9.89686 1.21112C6.62773 2.55438 3.89871 4.92944 2.13429 7.96684C0.369871 11.0042 -0.331025 14.5337 0.140625 18.0062C0.612276 21.4787 2.23003 24.6996 4.74225 27.1678L22.6286 9.4656C23.2974 8.80315 23.7782 7.97812 24.0229 7.07343C24.2675 6.16874 24.2673 5.21625 24.0223 4.31167C23.7773 3.40708 23.296 2.58226 22.627 1.92009C21.9579 1.25791 21.1246 0.781711 20.2107 0.539326Z" fill="url(#paint0_linear)"/>
<path d="M6.78875 36.4601C10.2096 37.3707 13.8386 37.1359 17.1107 35.7925C20.3827 34.449 23.1142 32.0723 24.8796 29.0323C26.6451 25.9923 27.3455 22.4597 26.8717 18.9847C26.398 15.5097 24.7767 12.2873 22.2603 9.81934L4.37394 27.5338C3.70514 28.196 3.22416 29.0208 2.97933 29.9253C2.7345 30.8298 2.73443 31.7822 2.97913 32.6867C3.22383 33.5913 3.70469 34.4161 4.3734 35.0785C5.0421 35.7408 5.87512 36.2173 6.78875 36.4601Z" fill="url(#paint1_linear)"/>
<path style="mix-blend-mode:multiply" d="M22.2603 9.81934L4.37394 27.5338C3.70514 28.196 3.22416 29.0208 2.97933 29.9253C2.7345 30.8298 2.73443 31.7822 2.97913 32.6867C3.22383 33.5913 3.70469 34.4161 4.3734 35.0785C5.0421 35.7408 5.87512 36.2173 6.78875 36.4601C8.70142 36.965 10.6917 37.1169 12.6599 36.9081C4.81723 29.4393 22.2603 9.81934 22.2603 9.81934Z" fill="url(#paint2_linear)"/>
<g style="mix-blend-mode:multiply">
<path style="mix-blend-mode:multiply" d="M6.46017 36.3617C3.92136 28.58 19.1697 12.9092 21.8604 10.2273L4.37395 27.5336C3.72563 28.1755 3.25344 28.9705 3.00202 29.8433C2.7506 30.7162 2.72826 31.6381 2.93711 32.5219C3.14597 33.4057 3.57912 34.2222 4.19559 34.8941C4.81207 35.566 5.5915 36.0711 6.46017 36.3617Z" fill="url(#paint3_linear)"/>
<path style="mix-blend-mode:multiply" d="M22.2014 9.88984C22.22 9.86941 22.2396 9.84995 22.2603 9.83154L22.2014 9.88984Z" fill="url(#paint4_linear)"/>
</g>
<path style="mix-blend-mode:screen" d="M23.9404 7.3645L4.72113 27.1563L22.6292 9.46643C23.2273 8.87775 23.6766 8.15757 23.9404 7.3645Z" fill="url(#paint5_radial)"/>
</g>
<defs>
<linearGradient id="paint0_linear" x1="16.4102" y1="-16.6934" x2="10.5876" y2="20.6654" gradientUnits="userSpaceOnUse">
<stop stop-color="#0096D9"/>
<stop offset="1" stop-color="#00C198"/>
</linearGradient>
<linearGradient id="paint1_linear" x1="9.13537" y1="13.6181" x2="18.5045" y2="32.4248" gradientUnits="userSpaceOnUse">
<stop stop-color="#002DD9"/>
<stop offset="1" stop-color="#00B2AB"/>
</linearGradient>
<linearGradient id="paint2_linear" x1="23.8071" y1="-3.42432" x2="6.08252" y2="38.1714" gradientUnits="userSpaceOnUse">
<stop stop-color="#3482C0"/>
<stop offset="0.45" stop-color="#96BEDE"/>
<stop offset="0.83" stop-color="#E1EDF6"/>
<stop offset="1" stop-color="white"/>
</linearGradient>
<linearGradient id="paint3_linear" x1="1361.37" y1="132.275" x2="-132.261" y2="2238.51" gradientUnits="userSpaceOnUse">
<stop stop-color="#3482C0"/>
<stop offset="0.45" stop-color="#96BEDE"/>
<stop offset="0.83" stop-color="#E1EDF6"/>
<stop offset="1" stop-color="white"/>
</linearGradient>
<linearGradient id="paint4_linear" x1="25.6732" y1="3.26808" x2="10.5951" y2="32.7125" gradientUnits="userSpaceOnUse">
<stop stop-color="#569FA1"/>
<stop offset="0.36" stop-color="#97C4C5"/>
<stop offset="0.8" stop-color="#E2EEEF"/>
<stop offset="1" stop-color="white"/>
</linearGradient>
<radialGradient id="paint5_radial" cx="0" cy="0" r="1" gradientUnits="userSpaceOnUse" gradientTransform="translate(21.5938 32.382) scale(27.8184 27.5367)">
<stop stop-color="#FFFF00"/>
<stop offset="1"/>
</radialGradient>
<clipPath id="clip0">
<rect width="27" height="37" fill="white"/>
</clipPath>
</defs>
</svg>
