<svg width="31" height="27" viewBox="0 0 31 27" fill="none" xmlns="http://www.w3.org/2000/svg">
<path opacity="0.3" fill-rule="evenodd" clip-rule="evenodd" d="M27.5006 3.93753H21.2506V2.62497C21.2658 1.94576 21.0112 1.28832 20.5426 0.796356C20.0741 0.304395 19.4298 0.0180146 18.7506 0H11.2506C10.5715 0.0180146 9.92718 0.304395 9.45864 0.796356C8.99011 1.28832 8.73552 1.94576 8.75064 2.62497V3.93753H2.50064C1.8215 3.95555 1.17718 4.24177 0.708644 4.73373C0.24011 5.2257 -0.0144791 5.88329 0.000636608 6.5625V10.5C-0.0144791 11.1792 0.24011 11.8367 0.708644 12.3286C1.17718 12.8206 1.8215 13.107 2.50064 13.125H12.5006V12.4625C12.4983 12.3786 12.5126 12.2951 12.5429 12.2168C12.5732 12.1385 12.6189 12.067 12.677 12.0065C12.7352 11.946 12.8048 11.8978 12.8818 11.8645C12.9588 11.8312 13.0417 11.8134 13.1256 11.8124H16.8756C16.9596 11.8134 17.0424 11.8312 17.1195 11.8645C17.1965 11.8978 17.2661 11.946 17.3242 12.0065C17.3824 12.067 17.4281 12.1385 17.4584 12.2168C17.4886 12.2951 17.503 12.3786 17.5006 12.4625V13.125H27.5006C28.1798 13.107 28.8241 12.8206 29.2926 12.3286C29.7612 11.8367 30.0158 11.1792 30.0006 10.5V6.5625C30.0158 5.88329 29.7612 5.2257 29.2926 4.73373C28.8241 4.24177 28.1798 3.95555 27.5006 3.93753ZM18.7506 3.93753H11.2506V2.62497H18.7506V3.93753ZM29.6506 13.8374C29.5482 13.7825 29.4318 13.7593 29.3161 13.7704C29.2005 13.7816 29.0907 13.8266 29.0006 13.9C28.5754 14.2431 28.0469 14.4326 27.5006 14.4376H17.5006V16.4C17.5031 16.4845 17.4889 16.5687 17.4588 16.6478C17.4288 16.7269 17.3835 16.7993 17.3255 16.8608C17.2674 16.9223 17.1977 16.9718 17.1205 17.0064C17.0434 17.041 16.9602 17.0601 16.8756 17.0625H13.1256C13.0411 17.0601 12.9579 17.041 12.8807 17.0064C12.8036 16.9718 12.7339 16.9223 12.6758 16.8608C12.6178 16.7993 12.5725 16.7269 12.5424 16.6478C12.5124 16.5687 12.4981 16.4845 12.5006 16.4V14.4376H2.50064C1.95435 14.4326 1.42583 14.2431 1.0007 13.9C0.910614 13.8266 0.800813 13.7816 0.685146 13.7704C0.569478 13.7593 0.453093 13.7825 0.350673 13.8374C0.243506 13.8932 0.154012 13.9778 0.0921893 14.0816C0.0303667 14.1853 -0.00137506 14.3043 0.000636608 14.425V23.625C-0.0144791 24.3042 0.24011 24.9617 0.708644 25.4536C1.17718 25.9456 1.8215 26.232 2.50064 26.25H27.5006C28.1798 26.232 28.8241 25.9456 29.2926 25.4536C29.7612 24.9617 30.0158 24.3042 30.0006 23.625V14.425C30.0026 14.3043 29.9709 14.1853 29.9091 14.0816C29.8473 13.9778 29.7578 13.8932 29.6506 13.8374Z" fill="white"/>
</svg>
