<svg width="20" height="20" viewBox="0 0 20 20" fill="none" xmlns="http://www.w3.org/2000/svg">
<path d="M19.7551 18.5796L14.9469 13.7714C16.1388 12.3184 16.8571 10.4571 16.8571 8.42857C16.8571 3.77551 13.0816 0 8.42857 0C3.77143 0 0 3.77551 0 8.42857C0 13.0816 3.77143 16.8571 8.42857 16.8571C10.4571 16.8571 12.3143 16.1429 13.7673 14.951L18.5755 19.7551C18.902 20.0816 19.4286 20.0816 19.7551 19.7551C20.0816 19.4327 20.0816 18.902 19.7551 18.5796ZM8.42857 15.1796C4.70204 15.1796 1.67347 12.151 1.67347 8.42857C1.67347 4.70612 4.70204 1.67347 8.42857 1.67347C12.151 1.67347 15.1837 4.70612 15.1837 8.42857C15.1837 12.151 12.151 15.1796 8.42857 15.1796Z" fill="#1A1A1A"/>
</svg>
