<svg width="80" height="80" viewBox="0 0 80 80" fill="none" xmlns="http://www.w3.org/2000/svg">
<rect width="80" height="80" rx="25" fill="#FFC059"/>
<path d="M43.2741 27.1599L48.6176 30.8396L49.1616 31.6396C49.3536 31.4156 49.6736 30.9356 49.6736 30.9356C49.6416 30.7436 49.1296 28.2158 48.9696 27.5759C47.5297 21.4004 46.2178 21.4004 40.0103 21.4004C33.7708 21.4004 32.4909 21.4004 31.0511 27.5759C30.8591 28.4078 30.4111 30.7436 30.3471 30.9356C30.3471 30.9356 30.6351 31.3836 30.8591 31.6396L31.435 30.7436L31.723 30.7116C31.787 30.7116 38.0585 29.8477 43.1141 27.2559L43.2741 27.1599Z" fill="#2C3E50"/>
<path d="M39.9839 50.3262C41.8077 50.3582 45.8714 46.8384 45.8714 46.8384V45.7505C43.6956 47.2544 41.8077 48.5663 39.9839 48.5663C39.9519 48.5663 39.9519 48.5663 39.9199 48.5663C38.064 48.5663 36.1762 47.2224 33.9364 45.6545V46.7425C33.9364 46.7425 38.064 50.3262 39.9199 50.3262C39.9519 50.3262 39.9839 50.3262 39.9839 50.3262Z" fill="#2C3E50"/>
<path d="M60.8442 54.7737C59.1484 52.5339 55.3727 50.5821 47.4693 47.8943V49.3662C47.4693 53.9738 43.6616 56.3736 39.9179 56.3736C36.1742 56.3736 32.3665 53.9418 32.3665 49.3662V47.9263C24.5911 50.5821 20.8474 52.5339 19.1516 54.7737C18.8956 55.1577 18.4476 55.8297 17.7757 62.7091H62.2201C61.5482 55.8297 61.1002 55.1577 60.8442 54.7737Z" fill="#2C3E50"/>
<path d="M54.7018 32.4074C54.7018 31.1915 54.3178 30.6476 53.9339 30.0716C53.5819 29.5917 53.1979 29.0157 53.1659 28.1838C52.718 20.2484 48.7823 16.8887 40.015 16.8887C29.6158 16.8887 27.248 21.4003 26.864 28.1518C26.832 29.0157 26.4161 29.5597 26.0641 30.0396C25.6481 30.6156 25.2322 31.1595 25.2962 32.5034C25.5521 36.7271 27.024 37.783 27.472 38.007C27.856 38.199 28.1759 38.167 28.3359 38.071C28.4959 37.975 28.5599 37.815 28.5919 37.623C28.0159 36.8551 27.632 35.7352 27.504 34.4873C27.312 32.3114 27.824 30.6476 28.9119 30.0076C29.0719 29.2397 29.3598 27.7038 29.5198 27.0319C31.1837 19.9924 33.3595 19.6724 39.983 19.6724C46.6385 19.6724 48.8143 19.9924 50.4461 27.0319C50.5741 27.5758 50.8941 29.2077 51.0541 30.0076C52.142 30.6476 52.654 32.3114 52.462 34.5193C52.334 35.8312 51.918 36.9511 51.3101 37.719C51.0541 38.039 50.7341 38.327 50.3822 38.6149C48.1103 40.5028 46.6065 41.3667 42.3188 41.4947C42.0308 41.1747 41.6149 40.9507 41.1669 40.9507C40.335 40.9507 39.631 41.6227 39.631 42.4866C39.631 43.3186 40.303 44.0225 41.1669 44.0225C41.9028 44.0225 42.5428 43.4785 42.6708 42.7746C47.2784 42.5826 48.9743 41.4627 51.4381 39.4469C52.238 38.7749 52.846 38.327 53.4219 37.527C54.2218 36.4391 54.4778 34.1673 54.6698 32.5034L54.7018 32.4074Z" fill="#2C3E50"/>
</svg>
