<svg width="40" height="45" viewBox="0 0 40 45" fill="none" xmlns="http://www.w3.org/2000/svg">
<path d="M20 44.0454C31.0457 44.0454 40 35.0911 40 24.0454C40 12.9997 31.0457 4.04541 20 4.04541C8.9543 4.04541 0 12.9997 0 24.0454C0 35.0911 8.9543 44.0454 20 44.0454Z" fill="url(#paint0_radial)"/>
<g style="mix-blend-mode:screen">
<path d="M19.9098 5.51819C9.65528 5.51819 1.3371 13.8364 1.3371 24.0909C1.3371 28.3546 2.77346 32.2818 5.19164 35.4091C3.61892 32.6818 2.72801 29.5273 2.72801 26.1546C2.72801 15.9 11.0462 7.58183 21.3007 7.58183C27.3007 7.58183 32.628 10.4273 36.0189 14.8364C32.8098 9.27273 26.8007 5.51819 19.9098 5.51819Z" fill="url(#paint1_radial)"/>
</g>
<path d="M20 34.4365C16.7363 34.4365 13.6545 33.1728 11.3272 30.8819C11 30.5547 10.9909 30.0274 11.3181 29.7001C11.6454 29.3728 12.1727 29.3638 12.5 29.691C14.509 31.6728 17.1818 32.7638 20 32.7638C22.8272 32.7638 25.4909 31.6728 27.5 29.691C27.8272 29.3638 28.3545 29.3728 28.6818 29.7001C29.0091 30.0274 29 30.5547 28.6727 30.8819C26.3545 33.1728 23.2727 34.4365 20 34.4365Z" fill="url(#paint2_radial)"/>
<path d="M15.5636 21.9545C15.3545 21.9545 15.1364 21.8727 14.9727 21.709C14.2727 21.009 13.4636 20.6454 12.6454 20.6454C11.8182 20.6454 11.0182 21.009 10.3182 21.709C9.9909 22.0363 9.46363 22.0363 9.13635 21.709C8.80908 21.3818 8.80908 20.8545 9.13635 20.5272C10.1545 19.5181 11.3636 18.9818 12.6454 18.9818C13.9182 18.9818 15.1273 19.5181 16.1545 20.5272C16.4818 20.8545 16.4818 21.3818 16.1545 21.709C15.9909 21.8727 15.7727 21.9545 15.5636 21.9545Z" fill="url(#paint3_linear)"/>
<path d="M24.4462 21.9545C24.228 21.9545 24.0189 21.8727 23.8553 21.7091C23.528 21.3818 23.528 20.8545 23.8553 20.5273C24.8734 19.5182 26.0825 18.9818 27.3644 18.9818C28.6371 18.9818 29.8462 19.5182 30.8734 20.5273C31.2007 20.8545 31.2007 21.3818 30.8734 21.7091C30.5462 22.0364 30.0189 22.0364 29.6916 21.7091C28.9916 21.0091 28.1825 20.6454 27.3644 20.6454C26.5371 20.6454 25.7371 21.0091 25.0371 21.7091C24.8734 21.8727 24.6643 21.9545 24.4462 21.9545Z" fill="url(#paint4_linear)"/>
<path d="M19.9979 0C11.656 0 2.66727 1.24972 2.66727 4.00091C2.66727 6.7521 11.656 8.00182 19.9979 8.00182C28.3399 8.00182 37.3418 6.7521 37.3418 4.00091C37.3418 1.24972 28.3531 0 19.9979 0ZM31.0721 5.45742C28.1287 6.03283 24.1953 6.3565 19.9979 6.3565C15.8006 6.3565 11.8672 6.04182 8.92373 5.45742C6.01989 4.88201 5.08274 4.22568 5.08274 4.00091C5.08274 3.77614 6.01989 3.11981 8.93693 2.5444C11.8804 1.96899 15.8138 1.64532 20.0111 1.64532C24.2085 1.64532 28.1419 1.96 31.0853 2.5444C33.9892 3.11981 34.9395 3.76715 34.9395 4.00091C34.9263 4.22568 33.9892 4.88201 31.0721 5.45742Z" fill="url(#paint5_radial)"/>
<defs>
<radialGradient id="paint0_radial" cx="0" cy="0" r="1" gradientUnits="userSpaceOnUse" gradientTransform="translate(15.2637 13.588) scale(31.3448)">
<stop stop-color="#F7E135"/>
<stop offset="0.5" stop-color="#FCBC27"/>
<stop offset="1" stop-color="#FF7E2C"/>
</radialGradient>
<radialGradient id="paint1_radial" cx="0" cy="0" r="1" gradientUnits="userSpaceOnUse" gradientTransform="translate(2.05402 -4.36295) scale(34.7264)">
<stop stop-color="white"/>
<stop offset="1"/>
</radialGradient>
<radialGradient id="paint2_radial" cx="0" cy="0" r="1" gradientUnits="userSpaceOnUse" gradientTransform="translate(20.0043 31.9478) scale(6.54982)">
<stop stop-color="#372396"/>
<stop offset="1"/>
</radialGradient>
<linearGradient id="paint3_linear" x1="8.89364" y1="20.4693" x2="16.3953" y2="20.4693" gradientUnits="userSpaceOnUse">
<stop stop-color="#372396"/>
<stop offset="1"/>
</linearGradient>
<linearGradient id="paint4_linear" x1="23.614" y1="20.4693" x2="31.1157" y2="20.4693" gradientUnits="userSpaceOnUse">
<stop/>
<stop offset="1" stop-color="#372396"/>
</linearGradient>
<radialGradient id="paint5_radial" cx="0" cy="0" r="1" gradientUnits="userSpaceOnUse" gradientTransform="translate(20.0647 8.03935) scale(12.1044 8.24498)">
<stop stop-color="#09F5CF"/>
<stop offset="1" stop-color="#00D9FF"/>
</radialGradient>
</defs>
</svg>
