<svg width="32" height="32" viewBox="0 0 32 32" fill="none" xmlns="http://www.w3.org/2000/svg">
<g opacity="0.3">
<path d="M27.162 25H28.5389C30.4474 25 32 26.5702 32 28.5V31.0484C32 31.574 31.5787 32 31.0589 32H27C27.1047 31.7021 27.162 31.3819 27.162 31.0484V25Z" fill="white"/>
<path d="M20.162 20H21.5387C23.4471 20 25 21.5577 25 23.4721V31.056C25 31.5774 24.5787 32 24.0589 32H20C20.1044 31.7045 20.162 31.3869 20.162 31.056V20Z" fill="white"/>
<path d="M0.180896 9.41699L6.75971 0.379395C6.93365 0.140869 7.20812 0 7.5001 0C7.79208 0 8.06679 0.140869 8.24049 0.379395L14.8191 9.41699C15.0261 9.70142 15.058 10.0806 14.9016 10.3967C14.7449 10.7129 14.4268 10.9126 14.0787 10.9126H11.7107V31.0625C11.7107 31.5803 11.2983 32 10.7894 32H4.21081C3.70194 32 3.28952 31.5803 3.28952 31.0625V10.9126H0.921285C0.573402 10.9126 0.255031 10.7129 0.0986032 10.3967C-0.0580635 10.0806 -0.0261545 9.70142 0.180896 9.41699Z" fill="white"/>
<path d="M14.1618 15H15.5387C17.4471 15 19 16.5523 19 18.4605V31.059C19 31.5788 18.5785 32 18.0589 32H14C14.1044 31.7055 14.1618 31.3889 14.1618 31.059V15Z" fill="white"/>
</g>
</svg>
