<svg width="18" height="18" viewBox="0 0 18 18" fill="none" xmlns="http://www.w3.org/2000/svg">
<path d="M16.98 0.0449219H1.54426C1.01199 0.0449219 0.612793 0.442755 0.612793 0.973199V16.2898C0.612793 16.8865 1.01199 17.2844 1.54426 17.2844H9.86095V10.5875H7.59881V8.00159H9.86095V6.07873C9.86095 3.82434 11.2582 2.63084 13.1876 2.63084C14.1191 2.63084 14.984 2.69714 15.1836 2.76345V5.08414H13.7864C12.7219 5.08414 12.5223 5.61459 12.5223 6.34395V8.00159H15.1171L14.7844 10.5875H12.5223V17.2844H16.9135C17.4458 17.2844 17.845 16.8865 17.845 16.3561V0.973199C17.9115 0.442755 17.5123 0.0449219 16.98 0.0449219Z" fill="current" stroke="current"/>
</svg>
