<svg width="18" height="18" viewBox="0 0 18 18" fill="none" xmlns="http://www.w3.org/2000/svg">
<path fill-rule="evenodd" clip-rule="evenodd" d="M8.99307 4.19029C6.5585 4.19029 4.58452 6.16427 4.58452 8.59884C4.58452 11.0334 6.5585 13.0074 8.99307 13.0074C11.4277 13.0074 13.4016 11.0334 13.4016 8.59884C13.4016 6.16427 11.4277 4.19029 8.99307 4.19029ZM8.99307 11.4282C7.41388 11.4282 6.1637 10.178 6.1637 8.59884C6.1637 7.01966 7.41388 5.76947 8.99307 5.76947C10.5723 5.76947 11.8225 7.01966 11.8225 8.59884C11.8883 10.178 10.5723 11.4282 8.99307 11.4282Z" fill="white"/>
<path d="M14.6518 4.05869C14.6518 4.64013 14.1805 5.11147 13.599 5.11147C13.0176 5.11147 12.5462 4.64013 12.5462 4.05869C12.5462 3.47724 13.0176 3.00589 13.599 3.00589C14.1805 3.00589 14.6518 3.47724 14.6518 4.05869Z" fill="white"/>
<path fill-rule="evenodd" clip-rule="evenodd" d="M8.99307 0.0449219C6.6901 0.0449219 6.36109 0.0449219 5.4399 0.11072C4.51872 0.176519 3.92651 0.30812 3.33432 0.505516C2.74213 0.702916 2.28153 1.03191 1.82094 1.49251C1.36034 1.95311 1.03135 2.4137 0.833946 3.00589C0.636546 3.53229 0.504959 4.19029 0.439155 5.11147C0.373352 6.03267 0.373352 6.29586 0.373352 8.66465C0.373352 10.9676 0.373352 11.2966 0.439155 12.2178C0.504959 13.139 0.636546 13.7312 0.833946 14.3234C1.03135 14.9156 1.36034 15.3762 1.82094 15.8368C2.28153 16.2974 2.74213 16.6264 3.33432 16.8238C3.86072 17.0212 4.51872 17.1528 5.4399 17.2186C6.36109 17.2844 6.62429 17.2844 8.99307 17.2844C11.3618 17.2844 11.625 17.2844 12.5462 17.2186C13.4674 17.1528 14.0596 17.0212 14.6518 16.8238C15.244 16.6264 15.7046 16.2974 16.1652 15.8368C16.6258 15.3762 16.9548 14.9156 17.1522 14.3234C17.3496 13.797 17.4812 13.139 17.547 12.2178C17.6128 11.2966 17.6128 11.0334 17.6128 8.66465C17.6128 6.29586 17.6128 6.03267 17.547 5.11147C17.4812 4.19029 17.3496 3.59808 17.1522 3.00589C16.9548 2.4137 16.6258 1.95311 16.1652 1.49251C15.7046 1.03191 15.244 0.702916 14.6518 0.505516C14.1254 0.30812 13.4674 0.176519 12.5462 0.11072C11.625 0.0449219 11.3618 0.0449219 8.99307 0.0449219ZM8.99307 1.55831C11.296 1.55831 11.5593 1.55831 12.4804 1.62411C13.2632 1.68432 13.7153 1.79962 13.9882 1.86919C14.0135 1.87566 14.0373 1.88172 14.0596 1.88731C14.4544 2.0189 14.7176 2.2163 15.0466 2.5453C15.3756 2.8743 15.5072 3.13749 15.7046 3.53229C15.8362 3.86129 15.9678 4.25608 15.9678 5.11147C16.0336 6.03267 16.0336 6.29586 16.0336 8.59884C16.0336 10.9018 16.0336 11.165 15.9678 12.0862C15.9076 12.869 15.7923 13.3211 15.7227 13.594L15.7213 13.5997C15.7153 13.6229 15.7098 13.6447 15.7046 13.6654C15.573 14.0602 15.3756 14.3234 15.0466 14.6524C14.7176 14.9814 14.4544 15.113 14.0596 15.3104C13.7306 15.442 13.3358 15.5736 12.4804 15.5736C11.5593 15.6394 11.296 15.6394 8.99307 15.6394C6.6901 15.6394 6.42689 15.6394 5.50571 15.5736C4.72298 15.5134 4.27082 15.3981 3.998 15.3285C3.97267 15.322 3.94888 15.316 3.92652 15.3104C3.53172 15.1788 3.26853 14.9814 2.93953 14.6524C2.61054 14.3234 2.47894 14.0602 2.28154 13.6654C2.14994 13.3364 2.01834 12.9416 2.01834 12.0862C1.95254 11.1652 1.95254 10.9019 1.95254 8.5999V8.59779C1.95254 6.29578 1.95254 6.03253 2.01834 5.11147C2.07855 4.32875 2.19386 3.87659 2.26343 3.60377C2.26868 3.58314 2.27368 3.56355 2.27837 3.54491L2.28154 3.53229C2.41314 3.13749 2.61054 2.8743 2.93953 2.5453C3.26853 2.2163 3.53172 2.08471 3.92652 1.88731C4.25552 1.7557 4.65031 1.62411 5.50571 1.62411C5.86577 1.62411 6.13536 1.61406 6.46379 1.60181C6.97563 1.58272 7.63035 1.55831 8.99307 1.55831Z" fill="current" stroke="current"/>
</svg>
