<svg width="19" height="15" viewBox="0 0 19 15" fill="none" xmlns="http://www.w3.org/2000/svg">
<path d="M6.40932 14.4844C12.8824 14.4844 16.4492 9.13419 16.4492 4.51059C16.4492 4.37848 16.4492 4.18033 16.4492 4.04823C17.1097 3.51981 17.7041 2.92535 18.2325 2.19878C17.572 2.46299 16.9115 2.66114 16.1849 2.7272C16.9115 2.26484 17.4399 1.60432 17.7041 0.745651C17.0436 1.14196 16.251 1.47222 15.4584 1.60432C14.7979 0.943806 13.8731 0.481445 12.8824 0.481445C10.9669 0.481445 9.38164 2.06668 9.38164 3.98217C9.38164 4.24638 9.38164 4.51059 9.44769 4.77479C6.54143 4.70874 3.89937 3.32166 2.18203 1.20801C1.91782 1.73642 1.71967 2.33089 1.71967 2.9914C1.71967 4.24638 2.31413 5.3032 3.3049 5.89767C2.71044 5.89767 2.18203 5.69951 1.65362 5.43531C1.65362 5.43531 1.65362 5.43531 1.65362 5.50136C1.65362 7.2187 2.84254 8.60578 4.49383 8.93604C4.22963 9.00209 3.89937 9.06814 3.56911 9.06814C3.37096 9.06814 3.10675 9.06814 2.9086 9.00209C3.37096 10.3892 4.62593 11.446 6.21117 11.446C5.02224 12.3707 3.50306 12.9652 1.85177 12.9652C1.58757 12.9652 1.25731 12.9652 0.993103 12.8991C2.57834 13.8899 4.42778 14.4844 6.40932 14.4844Z" fill="current" stroke="current"/>
</svg>
